# Blender v3.6.22 OBJ File: 'nol_commission.blend'
# www.blender.org
mtllib fierce_deity_key.mtl
o Handle_Cube
v 0.000000 -0.000000 -0.510496
v 0.000000 -0.000260 0.513270
v 0.000000 1.405271 -0.423567
v 0.000000 1.405011 0.441426
v 0.000000 3.990988 -0.514294
v 0.000000 4.068621 0.509472
v 0.000000 4.626979 0.870725
v 0.000000 4.993593 1.546675
v 0.000000 5.383107 2.944823
v 0.000000 4.574246 -0.940521
v 0.000000 5.000473 -1.534996
v 0.000000 5.269669 -1.736893
v 0.000000 5.561298 -1.748110
v 0.000000 5.995211 -1.202084
v 0.000000 6.166990 -0.289964
v 0.000000 6.189423 -0.020768
v 0.000000 6.156253 0.271582
v 0.000000 6.035812 0.859148
v 0.000000 5.793843 1.393099
v 0.000000 5.624274 1.718016
v 0.000000 5.458492 2.041753
v 0.000000 5.126685 1.967294
v 0.000000 5.082858 1.727775
v 0.000000 4.833005 1.182736
v 0.000000 4.302090 -0.681970
v 0.000000 5.843165 -1.546498
v 0.000000 6.093866 -0.765497
v 0.000000 -0.553296 0.583373
v 0.000000 -0.568615 -0.565021
v 0.000000 -0.553296 0.583373
v 0.000000 -1.004812 -0.565021
v 0.000000 -0.989493 0.583373
v 0.000000 5.183495 2.397639
v 0.000000 5.388344 2.395922
v 0.000000 -0.552050 1.032033
v 0.000000 -0.567369 -1.024897
v 0.000000 -0.337845 1.700610
v 0.000000 -0.346673 -1.719438
v 0.000000 -0.521931 -1.372168
v 0.000000 -0.509858 1.366322
v 0.000000 -1.389393 0.993087
v 0.000000 -1.398221 -0.998933
v 0.000000 -0.956831 -1.463042
v 0.000000 -0.960985 1.379304
v 0.000000 -1.993060 -0.000041
v 0.000000 -1.795083 0.587397
v 0.000000 -1.793006 -0.499487
v 0.000000 6.189423 -0.020768
v 0.096165 5.362925 2.033943
v 0.209381 6.071649 -0.020768
v 0.205224 6.032391 0.268852
v 0.180399 5.911814 0.828883
v 0.156175 5.696063 1.353155
v 0.156175 5.533407 1.690940
v 0.066149 5.306579 2.394556
v 0.182989 6.052176 -0.319355
v 0.182989 5.993757 -0.773728
v 0.182989 5.870427 -1.208628
v 0.182989 5.753589 -1.474761
v 0.182989 5.515584 -1.593763
v 0.182989 5.304625 -1.588354
v 0.182989 5.109894 -1.442305
v 0.182989 4.704204 -0.852702
v 0.000000 5.952215 -1.873647
v 0.000000 6.006739 -2.169638
v 0.000000 6.279363 -3.042034
v 0.000000 6.072948 -2.730464
v 0.000000 5.749694 -2.862881
v 0.000000 5.983372 -2.971931
v 0.000000 5.329075 -2.465630
v 0.000000 5.750992 -2.229356
v 0.000000 5.699064 -2.379948
v 0.000000 5.531595 -2.691518
v 0.000000 5.251182 -2.331445
v 0.000000 5.526402 -2.276091
v 0.000000 5.452249 -1.864948
v 0.000000 5.265307 -1.826002
v 0.000000 5.396004 -2.289705
v 0.000000 4.458434 -2.078432
v 0.000000 4.839333 -1.889109
v 0.000000 4.611894 -2.952855
v 0.000000 4.980722 -2.452161
v 0.000000 4.308880 -1.900837
v 0.000000 4.271492 -2.115820
v 0.000000 2.149700 -3.115960
v 0.000000 3.462968 -2.952386
v 0.000000 3.993416 -2.655616
v 0.000000 4.758920 -2.609037
v 0.000000 3.624840 -3.562286
v 0.000000 4.293218 -3.373685
v 0.000000 2.177908 -3.659496
v 0.000000 -0.130993 -1.910184
v 0.000000 0.607428 -2.671973
v 0.000000 2.299421 -3.967950
v 0.000000 2.173235 -3.818396
v 0.000000 0.906703 -3.668843
v 0.000000 1.500243 -3.907194
v 0.000000 0.308488 -3.098670
v 0.182989 4.395749 -0.553595
v 0.096165 5.236710 1.704883
v 0.096165 5.151064 1.502038
v 0.096165 5.020342 1.127901
v 0.096165 4.844543 0.753765
v 0.190666 4.073731 0.230055
v 0.182989 4.080212 -0.296658
v 0.326331 4.697712 0.004116
v 0.256815 4.076972 -0.004944
v 0.000000 2.736816 0.430012
v 0.000000 2.750057 -0.384547
v 0.037341 6.040457 -2.866235
v 0.084964 5.896211 -2.690436
v 0.091454 5.882688 -2.212623
v 0.075206 5.810565 -1.865532
v 0.112396 5.558136 -1.987239
v 0.084964 5.571659 -2.523652
v 0.078583 5.373322 -2.009778
v 0.139111 4.936078 -2.158531
v 0.139111 4.625049 -2.370391
v 0.139111 4.485311 -2.469560
v 0.061670 4.356843 -2.090916
v 0.139111 4.169774 -3.019496
v 0.139111 4.388396 -2.548444
v 0.000000 4.524678 -3.145239
v 0.139111 3.597300 -3.258402
v 0.139111 2.174679 -3.377405
v 0.139111 1.433618 -3.334131
v 0.000000 1.427247 -3.023787
v 0.139111 1.801444 -3.777686
v 0.139111 0.449143 -2.906804
v 0.076566 2.115178 -3.902097
v 0.000000 2.024244 -3.986255
v 0.388143 -0.998507 0.004403
v 0.256815 1.417720 -0.000270
v 0.256815 2.747346 -0.002607
v 0.352149 -0.014724 0.002067
v 0.388143 -0.553351 0.003235
v 0.453570 -1.452880 0.004403
v 0.317207 -1.177010 0.750873
v 0.290471 -1.193238 -0.769113
v 0.198345 -0.744274 1.183610
v 0.160973 -0.771320 -1.261350
v 0.160973 -0.614453 -1.461491
v 0.000000 -0.667980 -1.629105
v 0.198345 -0.594980 1.423778
v 0.000000 -0.655906 1.572412
v -0.096165 5.362925 2.033943
v -0.209381 6.071649 -0.020768
v -0.205224 6.032391 0.268852
v -0.180399 5.911814 0.828883
v -0.156175 5.696063 1.353155
v -0.156175 5.533407 1.690940
v -0.066149 5.306579 2.394556
v -0.182989 6.052176 -0.319355
v -0.182989 5.993757 -0.773728
v -0.182989 5.870427 -1.208628
v -0.182989 5.753589 -1.474761
v -0.182989 5.515584 -1.593763
v -0.182989 5.304625 -1.588354
v -0.182989 5.109894 -1.442305
v -0.182989 4.704204 -0.852702
v -0.182989 4.395749 -0.553595
v -0.096165 5.236710 1.704883
v -0.096165 5.151064 1.502038
v -0.096165 5.020342 1.127901
v -0.096165 4.844543 0.753765
v -0.190666 4.073731 0.230055
v -0.182989 4.080212 -0.296658
v -0.326331 4.697712 0.004116
v -0.256815 4.076972 -0.004944
v -0.037341 6.040457 -2.866235
v -0.084964 5.896211 -2.690436
v -0.091454 5.882688 -2.212623
v -0.075206 5.810565 -1.865532
v -0.112396 5.558136 -1.987239
v -0.084964 5.571659 -2.523652
v -0.078583 5.373322 -2.009778
v -0.139111 4.936078 -2.158531
v -0.139111 4.625049 -2.370391
v -0.139111 4.485311 -2.469560
v -0.061670 4.356843 -2.090916
v -0.139111 4.169774 -3.019496
v -0.139111 4.388396 -2.548444
v -0.139111 3.597300 -3.258402
v -0.139111 2.174679 -3.377405
v -0.139111 1.433618 -3.334131
v -0.139111 1.801444 -3.777686
v -0.139111 0.449143 -2.906804
v -0.076566 2.115178 -3.902097
v -0.388143 -0.998507 0.004403
v -0.256815 1.417720 -0.000270
v -0.256815 2.747346 -0.002607
v -0.352149 -0.014724 0.002067
v -0.388143 -0.553351 0.003235
v -0.453570 -1.452880 0.004403
v -0.317207 -1.177010 0.750873
v -0.290471 -1.193238 -0.769113
v -0.198345 -0.744274 1.183610
v -0.160973 -0.771320 -1.261350
v -0.160973 -0.614453 -1.461491
v -0.198345 -0.594980 1.423778
vt 0.900160 0.381940
vt 0.900932 0.375864
vt 0.922207 0.382564
vt 0.687521 0.359131
vt 0.662194 0.358889
vt 0.687584 0.355358
vt 0.704222 0.357958
vt 0.703862 0.362368
vt 0.720049 0.365824
vt 0.718799 0.370017
vt 0.735634 0.373329
vt 0.733791 0.377841
vt 0.687441 0.349679
vt 0.707298 0.347058
vt 0.759824 0.383284
vt 0.758428 0.389005
vt 0.785664 0.388848
vt 0.785538 0.394563
vt 0.799027 0.390659
vt 0.799027 0.396093
vt 0.812804 0.389760
vt 0.811448 0.395058
vt 0.833389 0.391684
vt 0.833769 0.387065
vt 0.853534 0.387132
vt 0.853835 0.381375
vt 0.869425 0.380117
vt 0.866115 0.375984
vt 0.884520 0.385148
vt 0.884145 0.378612
vt 0.898177 0.387664
vt 0.924053 0.390719
vt 0.930318 0.389220
vt 0.938429 0.400243
vt 0.935195 0.386586
vt 0.878727 0.367111
vt 0.871606 0.365002
vt 0.884118 0.362080
vt 0.889761 0.366965
vt 0.907881 0.373468
vt 0.914511 0.367589
vt 0.911834 0.356396
vt 0.922256 0.365741
vt 0.930163 0.375804
vt 0.903089 0.365501
vt 0.890801 0.358438
vt 0.882321 0.353454
vt 0.763290 0.334040
vt 0.797879 0.327265
vt 0.837413 0.327565
vt 0.864617 0.346283
vt 0.871356 0.355268
vt 0.746027 0.342151
vt 0.728765 0.348183
vt 0.719405 0.352135
vt 0.718349 0.345036
vt 0.726705 0.340917
vt 0.798297 0.298624
vt 0.787454 0.298474
vt 0.823612 0.313332
vt 0.811757 0.298773
vt 0.821799 0.294657
vt 0.829535 0.309011
vt 0.841465 0.321568
vt 0.868894 0.341235
vt 0.878210 0.353655
vt 0.743497 0.333508
vt 0.757894 0.324001
vt 0.774562 0.298239
vt 0.798189 0.237275
vt 0.778228 0.236789
vt 0.815812 0.237400
vt 0.777701 0.175339
vt 0.798082 0.175925
vt 0.774387 0.110499
vt 0.797974 0.109832
vt 0.771152 0.084982
vt 0.797920 0.084979
vt 0.771152 0.064856
vt 0.797866 0.064440
vt 0.719602 0.094923
vt 0.732376 0.083059
vt 0.735026 0.086986
vt 0.725518 0.080248
vt 0.734428 0.066171
vt 0.743457 0.076170
vt 0.750451 0.085040
vt 0.798071 0.018551
vt 0.797866 0.043475
vt 0.770966 0.027686
vt 0.752248 0.046404
vt 0.763424 0.056204
vt 0.844160 0.045997
vt 0.833556 0.055455
vt 0.824139 0.064149
vt 0.821116 0.027781
vt 0.821623 0.110511
vt 0.817613 0.175351
vt 0.824139 0.084275
vt 0.845358 0.084333
vt 0.856268 0.074922
vt 0.865574 0.066363
vt 0.877404 0.094516
vt 0.861381 0.086429
vt 0.865503 0.082160
vt 0.873236 0.079690
vt 0.918451 0.330089
vt 0.907440 0.323912
vt 0.912015 0.317465
vt 0.934315 0.323305
vt 0.894544 0.311537
vt 0.895694 0.307599
vt 0.915655 0.312993
vt 0.943191 0.319281
vt 0.885774 0.309324
vt 0.893968 0.316225
vt 0.897664 0.338263
vt 0.885233 0.333800
vt 0.911213 0.340323
vt 0.905643 0.352802
vt 0.903717 0.359485
vt 0.886206 0.104467
vt 0.932190 0.131235
vt 0.921355 0.138538
vt 0.941043 0.124745
vt 0.967350 0.152347
vt 0.951907 0.176659
vt 0.978348 0.179733
vt 0.972373 0.193630
vt 0.978113 0.208106
vt 0.981996 0.203911
vt 0.981151 0.216607
vt 0.974251 0.210785
vt 0.966919 0.211001
vt 0.953904 0.210852
vt 0.941840 0.209699
vt 0.937587 0.176365
vt 0.948413 0.276492
vt 0.934293 0.270294
vt 0.937389 0.302906
vt 0.920600 0.294769
vt 0.953732 0.308602
vt 0.962434 0.277762
vt 0.900160 0.381940
vt 0.922207 0.382564
vt 0.687584 0.355358
vt 0.704222 0.357958
vt 0.720049 0.365824
vt 0.735634 0.373329
vt 0.759824 0.383284
vt 0.785664 0.388848
vt 0.799027 0.390659
vt 0.812804 0.389760
vt 0.833769 0.387065
vt 0.853835 0.381375
vt 0.866115 0.375984
vt 0.884145 0.378612
vt 0.930318 0.389220
vt 0.871606 0.365002
vt 0.889761 0.366965
vt 0.914511 0.367589
vt 0.890801 0.358438
vt 0.797879 0.327265
vt 0.763290 0.334040
vt 0.837413 0.327565
vt 0.864617 0.346283
vt 0.871356 0.355268
vt 0.746027 0.342151
vt 0.728765 0.348183
vt 0.719405 0.352135
vt 0.798297 0.298624
vt 0.787454 0.298474
vt 0.823612 0.313332
vt 0.811757 0.298773
vt 0.798189 0.237275
vt 0.798082 0.175925
vt 0.797974 0.109832
vt 0.797920 0.084979
vt 0.797866 0.064440
vt 0.732376 0.083059
vt 0.743457 0.076170
vt 0.797866 0.043475
vt 0.763424 0.056204
vt 0.833556 0.055455
vt 0.856268 0.074922
vt 0.865503 0.082160
vt 0.912015 0.317465
vt 0.907440 0.323912
vt 0.915655 0.312993
vt 0.894544 0.311537
vt 0.897664 0.338263
vt 0.932190 0.131235
vt 0.951907 0.176659
vt 0.972373 0.193630
vt 0.978113 0.208106
vt 0.953904 0.210852
vt 0.948413 0.276492
vt 0.937389 0.302906
vn 0.8227 -0.5678 -0.0272
vn 0.7775 0.6289 0.0060
vn 0.7333 0.6635 0.1482
vn 0.5783 0.7063 0.4083
vn 0.5367 0.7543 0.3781
vn 0.9085 -0.4165 0.0347
vn 0.8699 -0.4633 0.1690
vn 0.5660 0.7519 0.3382
vn 0.5426 0.8196 0.1839
vn 0.5010 0.8584 0.1104
vn 0.5032 0.8598 -0.0868
vn 0.4933 0.8613 -0.1218
vn 0.5053 0.8363 -0.2130
vn 0.5194 0.7820 -0.3444
vn 0.8686 0.4701 0.1567
vn 0.8479 0.5157 0.1230
vn 0.8622 0.5054 0.0334
vn 0.8810 0.4538 0.1337
vn 0.9391 0.2864 0.1897
vn 0.9519 -0.0706 -0.2982
vn 0.9544 -0.1736 0.2427
vn 0.5842 0.4260 -0.6908
vn 0.8883 -0.1858 0.4200
vn 0.9791 -0.0695 -0.1910
vn 0.9590 -0.2678 0.0924
vn 0.9096 0.1899 0.3695
vn 0.7948 -0.1369 0.5913
vn 0.8579 -0.3825 -0.3429
vn 0.8920 -0.2067 -0.4021
vn 0.9361 -0.2173 -0.2766
vn 0.9386 -0.1243 -0.3218
vn 0.9324 -0.0159 -0.3611
vn 0.8046 -0.2147 0.5536
vn 0.8952 0.0909 0.4362
vn 0.9755 0.0458 0.2152
vn 0.9869 0.0696 -0.1458
vn 1.0000 0.0000 0.0000
vn 0.9962 -0.0808 0.0313
vn 0.9954 -0.0944 0.0179
vn 0.9892 -0.1450 -0.0207
vn 0.9781 -0.1943 0.0745
vn 0.8827 -0.4503 0.1347
vn 0.8507 -0.4783 0.2179
vn 0.9570 -0.1111 0.2679
vn 0.9754 -0.1064 -0.1931
vn 0.9498 -0.1975 -0.2426
vn 0.9464 -0.0939 0.3090
vn 0.9735 -0.1591 -0.1641
vn 0.7284 -0.3844 -0.5672
vn 0.6473 -0.5280 -0.5497
vn 0.6335 -0.6331 -0.4448
vn 0.6071 -0.4768 -0.6357
vn 0.6369 -0.0255 -0.7705
vn 0.8805 -0.4409 0.1740
vn 0.9154 -0.3518 0.1957
vn 0.8457 -0.2528 0.4700
vn 0.9626 0.0005 0.2710
vn 0.9694 -0.0004 -0.2453
vn 0.8464 -0.0413 0.5310
vn 0.8092 -0.0728 -0.5830
vn 0.8622 0.0026 0.5066
vn 0.8419 0.0423 0.5380
vn 0.8263 0.0638 0.5596
vn 0.8309 0.0007 0.5565
vn 0.4573 0.7908 -0.4069
vn 0.6294 -0.2905 0.7208
vn 0.7433 -0.4616 0.4841
vn 0.6386 0.7300 -0.2433
vn 0.7475 -0.6294 0.2121
vn 0.8218 -0.4029 0.4029
vn 0.6926 -0.6262 0.3580
vn 0.8157 0.5402 0.2067
vn 0.7098 -0.6089 -0.3541
vn 0.8165 0.5270 -0.2358
vn 0.7874 -0.4836 -0.3823
vn 0.7427 -0.6216 -0.2490
vn 0.8374 0.0444 -0.5448
vn 0.8430 0.0074 -0.5378
vn 0.8238 0.0540 -0.5643
vn 0.8260 -0.0007 -0.5636
vn 0.7857 0.5086 0.3522
vn 0.6933 0.5574 -0.4568
vn 0.7625 -0.3875 0.5181
vn 0.7900 -0.3980 -0.4663
vn 0.6067 0.7097 0.3582
vn 0.7376 -0.1828 -0.6500
vn 0.8052 -0.3765 -0.4582
vn 0.7720 0.5962 0.2203
vn 0.9101 0.3479 -0.2252
vn 0.9149 -0.3827 0.1285
vn 0.9475 0.2647 -0.1796
vn 0.7913 -0.6023 0.1048
vn 0.8118 0.4466 0.3761
vn 0.9372 0.0826 0.3390
vn 0.9118 -0.2060 0.3553
vn 0.8887 0.2609 -0.3770
vn 0.8995 0.1781 -0.3991
vn 0.9202 0.2341 -0.3137
vn 0.9616 0.0760 -0.2638
vn 0.9630 0.0280 -0.2681
vn 0.9075 -0.0390 0.4183
vn 0.8937 0.3222 0.3123
vn 0.8189 -0.5383 -0.1991
vn 0.9447 -0.1749 -0.2775
vn 0.9512 -0.1785 -0.2517
vn 0.7133 0.0465 -0.6993
vn 0.7993 0.3524 0.4868
vn 0.7802 -0.0920 -0.6187
vn 0.7891 0.4695 0.3961
vn 0.9369 0.3494 -0.0103
vn 0.9839 0.1306 -0.1218
vn 0.8976 0.0406 0.4390
vn 0.8958 0.1762 0.4081
vn 0.9019 -0.0444 0.4297
vn 0.9358 -0.1541 0.3172
vn 0.9110 -0.3702 0.1819
vn 0.9349 0.2984 -0.1920
vn 0.9238 0.1247 -0.3620
vn 0.9035 0.0322 -0.4273
vn -0.8227 -0.5678 -0.0272
vn -0.7775 0.6289 0.0060
vn -0.7333 0.6635 0.1482
vn -0.5783 0.7063 0.4083
vn -0.5367 0.7543 0.3781
vn -0.9085 -0.4165 0.0347
vn -0.8699 -0.4633 0.1690
vn -0.5660 0.7519 0.3382
vn -0.5426 0.8196 0.1839
vn -0.5010 0.8584 0.1104
vn -0.5032 0.8598 -0.0868
vn -0.4933 0.8613 -0.1218
vn -0.5053 0.8363 -0.2130
vn -0.5194 0.7820 -0.3444
vn -0.8686 0.4701 0.1567
vn -0.8479 0.5157 0.1230
vn -0.8622 0.5054 0.0334
vn -0.8810 0.4538 0.1337
vn -0.9391 0.2864 0.1897
vn -0.9519 -0.0706 -0.2982
vn -0.9544 -0.1736 0.2427
vn -0.5842 0.4260 -0.6908
vn -0.8883 -0.1858 0.4200
vn -0.9791 -0.0695 -0.1910
vn -0.9590 -0.2678 0.0924
vn -0.9096 0.1899 0.3695
vn -0.7948 -0.1369 0.5913
vn -0.8579 -0.3825 -0.3429
vn -0.8920 -0.2067 -0.4021
vn -0.9361 -0.2173 -0.2766
vn -0.9386 -0.1243 -0.3218
vn -0.9324 -0.0159 -0.3611
vn -0.8046 -0.2147 0.5536
vn -0.8952 0.0909 0.4362
vn -0.9755 0.0458 0.2152
vn -0.9869 0.0696 -0.1458
vn -1.0000 0.0000 0.0000
vn -0.9962 -0.0808 0.0313
vn -0.9954 -0.0944 0.0179
vn -0.9892 -0.1450 -0.0207
vn -0.9781 -0.1943 0.0745
vn -0.8827 -0.4503 0.1347
vn -0.8507 -0.4783 0.2179
vn -0.9570 -0.1111 0.2679
vn -0.9754 -0.1064 -0.1931
vn -0.9498 -0.1975 -0.2426
vn -0.9464 -0.0939 0.3090
vn -0.9735 -0.1591 -0.1641
vn -0.7284 -0.3844 -0.5672
vn -0.6473 -0.5280 -0.5497
vn -0.6335 -0.6331 -0.4448
vn -0.6071 -0.4768 -0.6357
vn -0.6369 -0.0255 -0.7705
vn -0.8805 -0.4409 0.1740
vn -0.9154 -0.3518 0.1957
vn -0.8457 -0.2528 0.4700
vn -0.9626 0.0005 0.2710
vn -0.9694 -0.0004 -0.2453
vn -0.8464 -0.0413 0.5310
vn -0.8092 -0.0728 -0.5830
vn -0.8622 0.0026 0.5066
vn -0.8419 0.0423 0.5380
vn -0.8263 0.0638 0.5596
vn -0.8309 0.0007 0.5565
vn -0.4573 0.7908 -0.4069
vn -0.6294 -0.2905 0.7208
vn -0.7433 -0.4616 0.4841
vn -0.6386 0.7300 -0.2433
vn -0.7475 -0.6294 0.2121
vn -0.8218 -0.4029 0.4029
vn -0.6926 -0.6262 0.3580
vn -0.8157 0.5402 0.2067
vn -0.7098 -0.6089 -0.3541
vn -0.8165 0.5270 -0.2358
vn -0.7874 -0.4836 -0.3823
vn -0.7427 -0.6216 -0.2490
vn -0.8374 0.0444 -0.5448
vn -0.8430 0.0074 -0.5378
vn -0.8238 0.0540 -0.5643
vn -0.8260 -0.0007 -0.5636
vn -0.7857 0.5086 0.3522
vn -0.6933 0.5574 -0.4568
vn -0.7625 -0.3875 0.5181
vn -0.7900 -0.3980 -0.4663
vn -0.6067 0.7097 0.3582
vn -0.7376 -0.1828 -0.6500
vn -0.8052 -0.3765 -0.4582
vn -0.7720 0.5962 0.2203
vn -0.9101 0.3479 -0.2252
vn -0.9149 -0.3827 0.1285
vn -0.9475 0.2647 -0.1796
vn -0.7913 -0.6023 0.1048
vn -0.8118 0.4466 0.3761
vn -0.9372 0.0826 0.3390
vn -0.9118 -0.2060 0.3553
vn -0.8887 0.2609 -0.3770
vn -0.8995 0.1781 -0.3991
vn -0.9202 0.2341 -0.3137
vn -0.9616 0.0760 -0.2638
vn -0.9630 0.0280 -0.2681
vn -0.9075 -0.0390 0.4183
vn -0.8937 0.3222 0.3123
vn -0.8189 -0.5383 -0.1991
vn -0.9447 -0.1749 -0.2775
vn -0.9512 -0.1785 -0.2517
vn -0.7133 0.0465 -0.6993
vn -0.7993 0.3524 0.4868
vn -0.7802 -0.0920 -0.6187
vn -0.7891 0.4695 0.3961
vn -0.9369 0.3494 -0.0103
vn -0.9839 0.1306 -0.1218
vn -0.8976 0.0406 0.4390
vn -0.8958 0.1762 0.4081
vn -0.9019 -0.0444 0.4297
vn -0.9358 -0.1541 0.3172
vn -0.9110 -0.3702 0.1819
vn -0.9349 0.2984 -0.1920
vn -0.9238 0.1247 -0.3620
vn -0.9035 0.0322 -0.4273
usemtl Material
s off
f 112/1/1 71/2/1 111/3/1
f 34/4/2 9/5/2 55/6/2
f 34/4/3 55/6/3 49/7/3 21/8/3
f 21/8/4 49/7/4 54/9/4 20/10/4
f 20/10/5 54/9/5 53/11/5 19/12/5
f 33/13/6 22/14/6 49/7/6 55/6/6
f 9/5/7 33/13/7 55/6/7
f 19/12/8 53/11/8 52/15/8 18/16/8
f 18/16/9 52/15/9 51/17/9 17/18/9
f 50/19/10 48/20/10 17/18/10 51/17/10
f 50/19/11 56/21/11 15/22/11 48/20/11
f 27/23/12 15/22/12 56/21/12 57/24/12
f 14/25/13 27/23/13 57/24/13 58/26/13
f 26/27/14 14/25/14 58/26/14 59/28/14
f 64/29/15 26/27/15 113/30/15
f 64/29/16 113/30/16 112/1/16 65/31/16
f 65/31/17 112/1/17 111/3/17 67/32/17
f 110/33/18 67/32/18 111/3/18
f 66/34/19 67/32/19 110/33/19
f 69/35/20 66/34/20 110/33/20
f 13/36/21 113/30/21 26/27/21
f 13/36/22 26/27/22 59/28/22 60/37/22
f 76/38/23 114/39/23 113/30/23 13/36/23
f 113/30/24 114/39/24 71/2/24 112/1/24
f 71/2/25 72/40/25 111/3/25
f 111/3/26 72/40/26 115/41/26
f 72/40/27 70/42/27 115/41/27
f 70/42/28 73/43/28 115/41/28
f 111/3/29 115/41/29 73/43/29
f 73/43/30 68/44/30 111/3/30
f 68/44/31 69/35/31 110/33/31 111/3/31
f 75/45/32 71/2/32 114/39/32 116/46/32
f 114/39/33 76/38/33 116/46/33
f 77/47/34 116/46/34 76/38/34
f 50/19/35 51/17/35 103/48/35 106/49/35
f 50/19/36 106/49/36 63/50/36 56/21/36
f 56/21/37 63/50/37 62/51/37 57/24/37
f 57/24/37 62/51/37 61/52/37 58/26/37
f 58/26/37 61/52/37 60/37/37 59/28/37
f 51/17/38 52/15/38 102/53/38 103/48/38
f 52/15/39 53/11/39 101/54/39 102/53/39
f 53/11/40 54/9/40 100/55/40 101/54/40
f 49/7/41 100/55/41 54/9/41
f 23/56/42 100/55/42 49/7/42 22/14/42
f 8/57/43 101/54/43 100/55/43 23/56/43
f 107/58/44 106/49/44 104/59/44
f 106/49/45 107/58/45 99/60/45
f 105/61/46 99/60/46 107/58/46
f 104/59/47 106/49/47 103/48/47
f 99/60/48 63/50/48 106/49/48
f 5/62/49 25/63/49 99/60/49 105/61/49
f 25/63/50 10/64/50 63/50/50 99/60/50
f 10/64/51 11/65/51 62/51/51 63/50/51
f 11/65/52 12/66/52 61/52/52 62/51/52
f 12/66/53 13/36/53 60/37/53 61/52/53
f 24/67/54 102/53/54 101/54/54 8/57/54
f 7/68/55 103/48/55 102/53/55 24/67/55
f 6/69/56 104/59/56 103/48/56 7/68/56
f 107/58/57 104/59/57 134/70/57
f 105/61/58 107/58/58 134/70/58
f 108/71/59 134/70/59 104/59/59 6/69/59
f 105/61/60 134/70/60 109/72/60 5/62/60
f 4/73/61 133/74/61 134/70/61 108/71/61
f 2/75/62 135/76/62 133/74/62 4/73/62
f 135/76/63 2/75/63 30/77/63 136/78/63
f 32/79/64 132/80/64 136/78/64 30/77/64
f 37/81/65 144/82/65 40/83/65
f 145/84/66 144/82/66 37/81/66
f 144/82/67 145/84/67 44/85/67 140/86/67
f 144/82/68 140/86/68 35/87/68 40/83/68
f 45/88/69 137/89/69 46/90/69
f 46/90/70 137/89/70 41/91/70
f 137/89/71 138/92/71 41/91/71
f 137/89/72 132/80/72 32/79/72 138/92/72
f 137/89/73 42/93/73 139/94/73
f 137/89/74 139/94/74 31/95/74 132/80/74
f 137/89/75 47/96/75 42/93/75
f 137/89/76 45/88/76 47/96/76
f 1/97/77 3/98/77 133/74/77 135/76/77
f 133/74/78 3/98/78 109/72/78 134/70/78
f 135/76/79 136/78/79 29/99/79 1/97/79
f 136/78/80 132/80/80 31/95/80 29/99/80
f 36/100/81 31/95/81 139/94/81 141/101/81
f 35/87/82 140/86/82 138/92/82 32/79/82
f 44/85/83 41/91/83 138/92/83 140/86/83
f 43/102/84 141/101/84 139/94/84 42/93/84
f 38/103/85 39/104/85 142/105/85
f 143/106/86 38/103/86 142/105/86
f 142/105/87 141/101/87 43/102/87 143/106/87
f 142/105/88 39/104/88 36/100/88 141/101/88
f 88/107/89 118/108/89 119/109/89 81/110/89
f 119/109/90 120/111/90 84/112/90 122/113/90
f 122/113/91 123/114/91 81/110/91 119/109/91
f 84/112/92 120/111/92 83/115/92
f 83/115/93 120/111/93 79/116/93
f 118/108/94 79/116/94 120/111/94 119/109/94
f 79/116/95 118/108/95 117/117/95 80/118/95
f 88/107/96 82/119/96 117/117/96 118/108/96
f 82/119/97 74/120/97 117/117/97
f 116/46/98 117/117/98 74/120/98
f 74/120/99 78/121/99 116/46/99
f 78/121/100 75/45/100 116/46/100
f 80/118/101 117/117/101 116/46/101 77/47/101
f 92/122/102 129/123/102 93/124/102
f 98/125/103 129/123/103 92/122/103
f 129/123/104 98/125/104 96/126/104 126/127/104
f 126/127/105 96/126/105 97/128/105 128/129/105
f 130/130/106 131/131/106 94/132/106
f 128/129/107 130/130/107 95/133/107
f 128/129/108 97/128/108 131/131/108 130/130/108
f 130/130/109 94/132/109 95/133/109
f 95/133/110 91/134/110 128/129/110
f 128/129/111 91/134/111 125/135/111 126/127/111
f 126/127/112 125/135/112 85/136/112 127/137/112
f 126/127/113 127/137/113 93/124/113 129/123/113
f 85/136/114 125/135/114 124/138/114 86/139/114
f 124/138/115 121/140/115 87/141/115 86/139/115
f 121/140/116 122/113/116 84/112/116 87/141/116
f 121/140/117 90/142/117 123/114/117 122/113/117
f 121/140/118 124/138/118 89/143/118 90/142/118
f 124/138/119 125/135/119 91/134/119 89/143/119
f 172/144/120 171/145/120 71/2/120
f 34/4/121 152/146/121 9/5/121
f 34/4/122 21/8/122 146/147/122 152/146/122
f 21/8/123 20/10/123 151/148/123 146/147/123
f 20/10/124 19/12/124 150/149/124 151/148/124
f 33/13/125 152/146/125 146/147/125 22/14/125
f 9/5/126 152/146/126 33/13/126
f 19/12/127 18/16/127 149/150/127 150/149/127
f 18/16/128 17/18/128 148/151/128 149/150/128
f 147/152/129 148/151/129 17/18/129 48/20/129
f 147/152/130 48/20/130 15/22/130 153/153/130
f 27/23/131 154/154/131 153/153/131 15/22/131
f 14/25/132 155/155/132 154/154/132 27/23/132
f 26/27/133 156/156/133 155/155/133 14/25/133
f 64/29/134 173/157/134 26/27/134
f 64/29/135 65/31/135 172/144/135 173/157/135
f 65/31/136 67/32/136 171/145/136 172/144/136
f 170/158/137 171/145/137 67/32/137
f 66/34/138 170/158/138 67/32/138
f 69/35/139 170/158/139 66/34/139
f 13/36/140 26/27/140 173/157/140
f 13/36/141 157/159/141 156/156/141 26/27/141
f 76/38/142 13/36/142 173/157/142 174/160/142
f 173/157/143 172/144/143 71/2/143 174/160/143
f 71/2/144 171/145/144 72/40/144
f 171/145/145 175/161/145 72/40/145
f 72/40/146 175/161/146 70/42/146
f 70/42/147 175/161/147 73/43/147
f 171/145/148 73/43/148 175/161/148
f 73/43/149 171/145/149 68/44/149
f 68/44/150 171/145/150 170/158/150 69/35/150
f 75/45/151 176/162/151 174/160/151 71/2/151
f 174/160/152 176/162/152 76/38/152
f 77/47/153 76/38/153 176/162/153
f 147/152/154 168/163/154 165/164/154 148/151/154
f 147/152/155 153/153/155 160/165/155 168/163/155
f 153/153/156 154/154/156 159/166/156 160/165/156
f 154/154/156 155/155/156 158/167/156 159/166/156
f 155/155/156 156/156/156 157/159/156 158/167/156
f 148/151/157 165/164/157 164/168/157 149/150/157
f 149/150/158 164/168/158 163/169/158 150/149/158
f 150/149/159 163/169/159 162/170/159 151/148/159
f 146/147/160 151/148/160 162/170/160
f 23/56/161 22/14/161 146/147/161 162/170/161
f 8/57/162 23/56/162 162/170/162 163/169/162
f 169/171/163 166/172/163 168/163/163
f 168/163/164 161/173/164 169/171/164
f 167/174/165 169/171/165 161/173/165
f 166/172/166 165/164/166 168/163/166
f 161/173/167 168/163/167 160/165/167
f 5/62/168 167/174/168 161/173/168 25/63/168
f 25/63/169 161/173/169 160/165/169 10/64/169
f 10/64/170 160/165/170 159/166/170 11/65/170
f 11/65/171 159/166/171 158/167/171 12/66/171
f 12/66/172 158/167/172 157/159/172 13/36/172
f 24/67/173 8/57/173 163/169/173 164/168/173
f 7/68/174 24/67/174 164/168/174 165/164/174
f 6/69/175 7/68/175 165/164/175 166/172/175
f 169/171/176 191/175/176 166/172/176
f 167/174/177 191/175/177 169/171/177
f 108/71/178 6/69/178 166/172/178 191/175/178
f 167/174/179 5/62/179 109/72/179 191/175/179
f 4/73/180 108/71/180 191/175/180 190/176/180
f 2/75/181 4/73/181 190/176/181 192/177/181
f 192/177/182 193/178/182 30/77/182 2/75/182
f 32/79/183 30/77/183 193/178/183 189/179/183
f 37/81/184 40/83/184 200/180/184
f 145/84/185 37/81/185 200/180/185
f 200/180/186 197/181/186 44/85/186 145/84/186
f 200/180/187 40/83/187 35/87/187 197/181/187
f 45/88/188 46/90/188 194/182/188
f 46/90/189 41/91/189 194/182/189
f 194/182/190 41/91/190 195/183/190
f 194/182/191 195/183/191 32/79/191 189/179/191
f 194/182/192 196/184/192 42/93/192
f 194/182/193 189/179/193 31/95/193 196/184/193
f 194/182/194 42/93/194 47/96/194
f 194/182/195 47/96/195 45/88/195
f 1/97/196 192/177/196 190/176/196 3/98/196
f 190/176/197 191/175/197 109/72/197 3/98/197
f 192/177/198 1/97/198 29/99/198 193/178/198
f 193/178/199 29/99/199 31/95/199 189/179/199
f 36/100/200 198/185/200 196/184/200 31/95/200
f 35/87/201 32/79/201 195/183/201 197/181/201
f 44/85/202 197/181/202 195/183/202 41/91/202
f 43/102/203 42/93/203 196/184/203 198/185/203
f 38/103/204 199/186/204 39/104/204
f 143/106/205 199/186/205 38/103/205
f 199/186/206 143/106/206 43/102/206 198/185/206
f 199/186/207 198/185/207 36/100/207 39/104/207
f 88/107/208 81/110/208 179/187/208 178/188/208
f 179/187/209 182/189/209 84/112/209 180/190/209
f 182/189/210 179/187/210 81/110/210 123/114/210
f 84/112/211 83/115/211 180/190/211
f 83/115/212 79/116/212 180/190/212
f 178/188/213 179/187/213 180/190/213 79/116/213
f 79/116/214 80/118/214 177/191/214 178/188/214
f 88/107/215 178/188/215 177/191/215 82/119/215
f 82/119/216 177/191/216 74/120/216
f 176/162/217 74/120/217 177/191/217
f 74/120/218 176/162/218 78/121/218
f 78/121/219 176/162/219 75/45/219
f 80/118/220 77/47/220 176/162/220 177/191/220
f 92/122/221 93/124/221 187/192/221
f 98/125/222 92/122/222 187/192/222
f 187/192/223 185/193/223 96/126/223 98/125/223
f 185/193/224 186/194/224 97/128/224 96/126/224
f 188/195/225 94/132/225 131/131/225
f 186/194/226 95/133/226 188/195/226
f 186/194/227 188/195/227 131/131/227 97/128/227
f 188/195/228 95/133/228 94/132/228
f 95/133/229 186/194/229 91/134/229
f 186/194/230 185/193/230 184/196/230 91/134/230
f 185/193/231 127/137/231 85/136/231 184/196/231
f 185/193/232 187/192/232 93/124/232 127/137/232
f 85/136/233 86/139/233 183/197/233 184/196/233
f 183/197/234 86/139/234 87/141/234 181/198/234
f 181/198/235 87/141/235 84/112/235 182/189/235
f 181/198/236 182/189/236 123/114/236 90/142/236
f 181/198/237 90/142/237 89/143/237 183/197/237
f 183/197/238 89/143/238 91/134/238 184/196/238
l 28 30
l 16 15
l 17 16
l 2 28
l 16 48
o Blade_Cube.001
v 0.000000 13.959635 0.680774
v 0.000000 5.342635 2.570729
v 0.000000 11.303638 2.281109
v 0.000000 12.365859 1.673737
v 0.000000 8.757890 2.627641
v 0.000000 18.090771 -1.557901
v 0.000000 15.207134 -0.407952
v 0.000000 20.942968 -0.946585
v 0.000000 20.153316 -1.337760
v 0.000000 19.074593 -1.512537
v 0.000000 22.421814 0.001603
v 0.000000 16.484337 -1.288641
v 0.000000 21.665190 -0.503206
v 0.000000 23.758728 0.001603
v 0.000000 22.186117 -1.206836
v 0.000000 16.320602 -2.213908
v 0.000000 21.294724 -1.758004
v 0.000000 20.195789 -2.237724
v 0.000000 19.033915 -2.485212
v 0.000000 17.963049 -2.502094
v 0.000000 8.795322 1.501699
v 0.000000 14.608513 -1.056985
v 0.000000 13.347851 0.057521
v 0.000000 11.866533 0.920709
v 0.000000 11.135214 1.305160
v 0.000000 5.608574 1.545997
v 0.000000 13.975973 -0.717385
v 0.000000 5.777084 -2.644093
v 0.172629 9.284363 -1.683319
v 0.000000 12.604511 -1.643185
v 0.000000 8.925442 -2.569743
v 0.000000 18.258324 1.615798
v 0.000000 15.336402 0.536950
v 0.000000 21.110521 1.004483
v 0.000000 20.320869 1.395658
v 0.000000 19.242146 1.570435
v 0.000000 16.931471 1.446766
v 0.000000 21.832743 0.561104
v 0.159519 23.090271 0.001603
v 0.000000 22.353670 1.264734
v 0.000000 17.181215 3.783937
v 0.000000 22.037201 4.328244
v 0.000000 20.363342 2.295622
v 0.000000 18.925819 2.673716
v 0.000000 17.799824 2.583838
v 0.000000 9.258623 -0.946746
v 0.000000 14.794967 1.095981
v 0.000000 13.420895 -0.150836
v 0.000000 12.043536 -0.891164
v 0.000000 11.209789 -0.962381
v 0.000589 5.797826 -1.593054
v 0.000000 11.815485 -2.194168
v 0.000000 11.909284 -2.306669
v 0.000000 11.748061 -2.023641
v 0.000000 11.890965 -2.430212
v 0.000000 11.730182 -2.366706
v 0.000000 12.081057 -2.431444
v 0.000000 11.471189 -2.212195
v 0.000000 12.173551 -1.863494
v 0.000000 15.187922 2.515565
v 0.000000 7.132058 -2.746054
v 0.000000 7.401978 -3.297139
v 0.000000 7.344642 -2.728674
v 0.000000 7.575871 -2.570452
v 0.000000 7.449266 -2.607802
v 0.000000 8.150656 -2.870097
v 0.000000 7.880847 -2.667524
v 0.000000 8.044324 -2.749029
v 0.000000 8.401775 -3.181489
v 0.000000 8.363608 -2.875616
v 0.000000 8.347526 -2.973604
v 0.000000 8.435720 -2.738065
v 0.000000 8.258632 -3.043377
v 0.000000 7.165291 -3.047849
v 0.000000 7.229010 -2.485056
v 0.000000 7.103047 -2.364575
v 0.000000 6.597579 -2.543712
v 0.000000 7.126519 -2.900117
v 0.000000 7.303679 -2.965431
v 0.000000 7.301507 -2.890836
v 0.000000 7.272241 -3.180090
v 0.000000 7.333838 -3.127487
v 0.000000 8.593074 -2.593743
v 0.000000 8.781136 -2.559866
v 0.000000 10.480891 -4.048178
v 0.000000 9.881827 -3.877758
v 0.000000 9.578650 -3.617533
v 0.000000 9.366899 -3.410852
v 0.000000 9.446170 -3.090297
v 0.000000 9.346373 -3.228698
v 0.000000 9.360821 -2.835489
v 0.000000 9.192354 -2.647924
v 0.000000 10.100237 -3.680428
v 0.000000 9.998147 -3.391544
v 0.000000 9.947103 -3.083026
v 0.000000 10.072531 -2.712186
v 0.000000 10.135782 -4.008544
v 0.000000 10.240429 -3.877976
v 0.000000 10.597149 -3.075389
v 0.000000 10.312052 -2.821624
v 0.000000 10.407489 -2.470791
v 0.000000 10.432611 -2.774433
v 0.000000 10.348558 -2.587758
v 0.000000 11.127944 -2.773588
v 0.000000 10.834183 -2.407599
v 0.000000 10.925992 -2.630473
v 0.000000 11.567330 -2.933278
v 0.000000 11.314165 -2.582043
v 0.000000 11.240755 -2.322868
v 0.000000 11.387575 -2.753862
v 0.000000 11.338142 -2.866726
v 0.000000 10.620836 -2.424003
v 0.000000 11.468056 -1.123664
v 0.000000 11.065322 -1.279660
v 0.000000 9.265909 -1.361731
v 0.000000 8.760431 -1.325501
v 0.000000 15.497810 1.618719
v 0.000000 15.267261 1.774167
v 0.000000 14.840232 1.815224
v 0.000000 14.949911 1.276037
v 0.000000 14.957373 2.203198
v 0.000000 15.155784 2.166244
v 0.000000 23.535776 0.265967
v 0.000000 23.535398 4.585055
v 0.000000 23.331755 3.305552
v 0.000000 23.078983 2.022620
v 0.000000 22.841026 1.394281
v 0.000000 23.489645 3.337777
v 0.000000 23.401138 1.906881
v 0.000000 23.337194 0.942037
v 0.000000 20.698694 5.145625
v 0.000000 19.767994 4.422876
v 0.000000 19.468349 3.926617
v 0.000000 20.214100 3.743910
v 0.000000 20.262972 3.951723
v 0.000000 22.167870 1.644014
v 0.000000 20.900995 2.130581
v 0.000000 21.358837 3.339672
v 0.000000 22.041500 2.991379
v 0.000000 22.088276 2.258629
v 0.000000 16.170185 2.047647
v 0.000000 16.376425 2.868538
v 0.000000 16.844713 2.664092
v 0.000000 16.871202 3.105880
v 0.000000 16.637058 3.404994
v 0.000000 17.078121 2.379818
v 0.000000 18.500645 2.668155
v 0.000000 19.126204 3.339545
v 0.159519 21.964521 -0.859801
v 0.159519 21.144136 -1.384847
v 0.159519 20.225306 -1.791758
v 0.159519 19.044621 -2.073971
v 0.159519 18.026674 -2.080534
v 0.159519 16.427591 -1.785668
v 0.159519 14.907896 -0.719613
v 0.159519 13.655660 0.398737
v 0.159519 12.131428 1.310554
v 0.159519 11.246829 1.786876
v 0.098008 7.568933 -2.346897
v 0.000000 10.057982 2.536030
v 0.159519 10.021999 1.970601
v 0.138895 8.797171 2.045451
v 0.063116 5.357469 2.018985
v 0.146373 6.066836 2.091286
v 0.000000 6.052673 2.737010
v 0.000000 6.073098 1.615731
v 0.000000 9.965268 1.487962
v 0.000000 13.172197 1.252862
v 0.000000 12.687524 0.474939
v 0.159519 12.959699 0.882998
v 0.211667 22.967213 0.197584
v 0.000000 22.300470 0.235776
v 0.211667 22.921637 0.931374
v 0.144493 23.268023 1.947741
v 0.211667 23.062925 1.220788
v 0.056077 23.413868 3.310493
v 0.147541 22.388386 1.024806
v 0.147541 22.014654 1.512480
v 0.147541 22.105806 1.241297
v 0.211667 22.324577 0.671585
v 0.211667 21.353788 1.305105
v 0.211667 20.265409 1.769990
v 0.147541 21.894331 2.196135
v 0.147541 21.861515 3.011052
v 0.147541 21.549768 3.235291
v 0.147541 21.201925 1.975178
v 0.147541 20.834393 1.922673
v 0.147541 20.309345 2.113003
v 0.000000 21.492939 0.807014
v 0.211667 21.834581 1.050139
v 0.000000 20.758390 1.218238
v 0.211667 20.924196 1.552954
v 0.147541 20.138704 2.329584
v 0.125836 20.014006 3.727522
v 0.000000 20.167194 3.017308
v 0.147541 19.954786 3.026181
v 0.123006 20.022940 3.964340
v 0.000000 20.316755 4.341937
v 0.091591 20.046457 4.350468
v 0.211667 19.254694 1.973446
v 0.147541 19.331446 2.362400
v 0.147541 19.509195 3.082516
v 0.147541 19.746195 3.770729
v 0.147541 19.837349 4.025960
v 0.000000 19.590826 4.151958
v 0.147541 18.515617 2.330496
v 0.211667 18.461655 1.964330
v 0.147541 17.787903 2.254889
v 0.211667 17.733940 1.888724
v 0.147541 17.031836 2.084774
v 0.211667 16.977873 1.718608
v 0.000000 17.700829 1.604030
v 0.000000 16.396744 1.388990
v 0.147541 16.709150 2.451213
v 0.109428 16.654457 2.834060
v 0.000000 16.803265 2.852170
v 0.106304 16.769312 3.216907
v 0.147541 16.484911 2.002735
v 0.000000 16.344404 2.458092
v 0.147541 15.626241 1.433934
v 0.211667 16.447357 1.642039
v 0.000000 15.940408 1.124313
v 0.000000 15.619263 0.852508
v 0.211667 15.719948 1.298571
v 0.235116 15.482583 1.073238
v 0.232304 15.069275 0.815758
v 0.113070 15.231240 1.589655
v 0.091410 15.037538 2.011243
v 0.091410 15.056528 2.182156
v 0.000000 15.162147 1.992994
v 0.000000 14.887407 2.028202
v 0.000000 14.876081 1.511448
v 0.101572 15.105631 1.790655
v 0.000000 15.200069 1.878931
v 0.147541 15.371769 1.228837
v 0.259436 12.341823 -1.253998
v 0.259436 13.682547 -0.456400
v 0.113070 15.231240 1.589655
v 0.259436 11.639935 -1.614057
v 0.259436 12.022783 -1.449979
v 0.000000 11.774027 -1.034760
v 0.000000 11.298157 -1.139621
v 0.107445 11.598916 -2.101731
v 0.081621 11.753878 -2.252136
v 0.051166 11.908839 -2.370636
v 0.066089 11.424837 -2.101731
v 0.069738 11.209612 -2.203014
v 0.259436 11.352147 -1.820951
v 0.000000 11.241313 -1.082652
v 0.000000 11.376776 -1.150633
v 0.000000 11.153381 -1.076710
v 0.000000 11.144168 -1.216166
v 0.259436 11.098942 -1.937826
v 0.069738 11.092505 -2.396083
v 0.069738 11.219108 -2.671444
v 0.069738 11.371031 -2.810707
v 0.000000 11.263150 -2.476795
v 0.069738 11.119655 -2.553755
v 0.259436 11.364574 -1.566581
v 0.259436 11.260127 -1.579241
v 0.045225 11.212651 -1.212093
v 0.045225 11.196826 -1.079160
v 0.259436 11.089213 -1.604562
v 0.259436 9.320343 -2.062525
v 0.000000 9.167314 -1.334648
v 0.000000 9.162328 -1.162852
v 0.000000 8.987371 -1.113968
v 0.084473 8.990011 -1.325666
v 0.172629 9.089711 -1.623182
v 0.084473 9.078633 -1.138926
v 0.172629 8.760544 -1.629512
v 0.259436 9.096256 -2.039736
v 0.221968 8.743034 -2.016948
v 0.000000 5.785355 -2.079222
v 0.129718 6.083105 -2.070873
v 0.000000 6.109850 -2.639480
v 0.000000 6.101141 -1.515638
v 0.172629 6.253806 -1.789032
v 0.069738 10.851959 -2.275810
v 0.069738 10.608249 -2.291635
v 0.069738 10.294907 -2.405578
v 0.069738 10.231606 -2.601812
v 0.049490 10.377199 -2.785387
v 0.000000 10.750127 -1.312305
v 0.244994 10.773114 -1.636655
v 0.259436 10.787210 -1.977563
v 0.000000 10.497491 -1.333273
v 0.232830 10.519715 -1.657158
v 0.259436 10.537490 -2.004503
v 0.000000 10.154235 -1.350109
v 0.216497 10.175436 -1.673371
v 0.259436 10.198151 -2.029361
v 0.000000 9.976746 -2.861991
v 0.000000 10.202719 -2.753029
v 0.000000 10.388783 -2.678094
v 0.049490 10.304555 -2.693792
v 0.069738 9.973125 -2.476792
v 0.069738 9.854434 -2.795937
v 0.069738 9.820146 -3.107169
v 0.069738 9.880810 -3.415764
v 0.054783 10.023238 -3.782385
v 0.047455 10.199955 -3.943276
v 0.098008 9.327449 -2.469196
v 0.000000 9.845221 -1.369295
v 0.201425 9.865479 -1.691982
v 0.259436 9.892751 -2.055948
v 0.157579 8.599724 -2.059291
v 0.000000 8.617622 -1.474799
v 0.172629 8.603634 -1.754770
v 0.098008 9.027400 -2.400830
v 0.098008 8.776726 -2.389436
v 0.098008 8.590619 -2.416023
v 0.060517 8.355138 -2.632514
v 0.045789 8.260185 -2.830014
v 0.045789 8.290570 -2.997130
v 0.098008 8.047492 -2.419821
v 0.030259 8.199731 -2.690771
v 0.098008 7.887972 -2.397032
v 0.098008 7.386624 -2.497302
v 0.053470 7.273062 -2.704277
v 0.038402 7.225440 -2.898431
v 0.030526 7.247419 -3.015656
v 0.030526 7.302369 -3.156693
v 0.098008 7.122012 -2.264473
v 0.098008 7.307008 -2.300190
v 0.151620 8.061424 -2.061768
v 0.000000 8.079352 -1.483534
v 0.172629 8.085818 -1.762098
v 0.149781 7.895325 -2.062533
v 0.000000 7.913262 -1.486230
v 0.172629 7.932003 -1.764360
v 0.000000 6.876899 -2.465538
v 0.000000 6.311935 -2.618183
v 0.141230 7.122992 -2.066087
v 0.000000 7.140971 -1.498763
v 0.172629 7.163614 -1.774875
v 0.146260 7.577306 -2.063996
v 0.000000 7.595260 -1.491391
v 0.172629 7.604213 -1.768689
v 0.138667 6.891484 -2.067153
v 0.000000 6.909476 -1.502520
v 0.172629 6.961066 -1.778026
v 0.135489 6.604396 -2.068474
v 0.000000 6.622404 -1.507179
v 0.172629 6.709889 -1.781935
v 0.098008 6.878934 -2.332839
v 0.098008 6.605471 -2.405003
v 0.098008 6.301623 -2.461974
v -0.172629 9.284363 -1.683319
v -0.159519 23.090271 0.001603
v -0.000589 5.797826 -1.593054
v -0.159519 21.964521 -0.859801
v -0.159519 21.144136 -1.384847
v -0.159519 20.225306 -1.791758
v -0.159519 19.044621 -2.073971
v -0.159519 18.026674 -2.080534
v -0.159519 16.427591 -1.785668
v -0.159519 14.907896 -0.719613
v -0.159519 13.655660 0.398737
v -0.159519 12.131428 1.310554
v -0.159519 11.246829 1.786876
v -0.098008 7.568933 -2.346897
v -0.159519 10.021999 1.970601
v -0.138895 8.797171 2.045451
v -0.063116 5.357469 2.018985
v -0.146373 6.066836 2.091286
v -0.159519 12.959699 0.882998
v -0.211667 22.967213 0.197584
v -0.211667 22.921637 0.931374
v -0.144493 23.268023 1.947741
v -0.211667 23.062925 1.220788
v -0.056077 23.413868 3.310493
v -0.147541 22.388386 1.024806
v -0.147541 22.014654 1.512480
v -0.147541 22.105806 1.241297
v -0.211667 22.324577 0.671585
v -0.211667 21.353788 1.305105
v -0.211667 20.265409 1.769990
v -0.147541 21.894331 2.196135
v -0.147541 21.861515 3.011052
v -0.147541 21.549768 3.235291
v -0.147541 21.201925 1.975178
v -0.147541 20.834393 1.922673
v -0.147541 20.309345 2.113003
v -0.211667 21.834581 1.050139
v -0.211667 20.924196 1.552954
v -0.147541 20.138704 2.329584
v -0.125836 20.014006 3.727522
v -0.147541 19.954786 3.026181
v -0.123006 20.022940 3.964340
v -0.091591 20.046457 4.350468
v -0.211667 19.254694 1.973446
v -0.147541 19.331446 2.362400
v -0.147541 19.509195 3.082516
v -0.147541 19.746195 3.770729
v -0.147541 19.837349 4.025960
v -0.147541 18.515617 2.330496
v -0.211667 18.461655 1.964330
v -0.147541 17.787903 2.254889
v -0.211667 17.733940 1.888724
v -0.147541 17.031836 2.084774
v -0.211667 16.977873 1.718608
v -0.147541 16.709150 2.451213
v -0.109428 16.654457 2.834060
v -0.106304 16.769312 3.216907
v -0.147541 16.484911 2.002735
v -0.147541 15.626241 1.433934
v -0.211667 16.447357 1.642039
v -0.211667 15.719948 1.298571
v -0.235116 15.482583 1.073238
v -0.232304 15.069275 0.815758
v -0.113070 15.231240 1.589655
v -0.091410 15.037538 2.011243
v -0.091410 15.056528 2.182156
v -0.101572 15.105631 1.790655
v -0.147541 15.371769 1.228837
v -0.259436 12.341823 -1.253998
v -0.259436 13.682547 -0.456400
v -0.113070 15.231240 1.589655
v -0.259436 11.639935 -1.614057
v -0.259436 12.022783 -1.449979
v -0.107445 11.598916 -2.101731
v -0.081621 11.753878 -2.252136
v -0.051166 11.908839 -2.370636
v -0.066089 11.424837 -2.101731
v -0.069738 11.209612 -2.203014
v -0.259436 11.352147 -1.820951
v -0.259436 11.098942 -1.937826
v -0.069738 11.092505 -2.396083
v -0.069738 11.219108 -2.671444
v -0.069738 11.371031 -2.810707
v -0.069738 11.119655 -2.553755
v -0.259436 11.364574 -1.566581
v -0.259436 11.260127 -1.579241
v -0.045225 11.212651 -1.212093
v -0.045225 11.196826 -1.079160
v -0.259436 11.089213 -1.604562
v -0.259436 9.320343 -2.062525
v -0.084473 8.990011 -1.325666
v -0.172629 9.089711 -1.623182
v -0.084473 9.078633 -1.138926
v -0.172629 8.760544 -1.629512
v -0.259436 9.096256 -2.039736
v -0.221968 8.743034 -2.016948
v -0.129718 6.083105 -2.070873
v -0.172629 6.253806 -1.789032
v -0.069738 10.851959 -2.275810
v -0.069738 10.608249 -2.291635
v -0.069738 10.294907 -2.405578
v -0.069738 10.231606 -2.601812
v -0.049490 10.377199 -2.785387
v -0.244994 10.773114 -1.636655
v -0.259436 10.787210 -1.977563
v -0.232830 10.519715 -1.657158
v -0.259436 10.537490 -2.004503
v -0.216497 10.175436 -1.673371
v -0.259436 10.198151 -2.029361
v -0.049490 10.304555 -2.693792
v -0.069738 9.973125 -2.476792
v -0.069738 9.854434 -2.795937
v -0.069738 9.820146 -3.107169
v -0.069738 9.880810 -3.415764
v -0.054783 10.023238 -3.782385
v -0.047455 10.199955 -3.943276
v -0.098008 9.327449 -2.469196
v -0.201425 9.865479 -1.691982
v -0.259436 9.892751 -2.055948
v -0.157579 8.599724 -2.059291
v -0.172629 8.603634 -1.754770
v -0.098008 9.027400 -2.400830
v -0.098008 8.776726 -2.389436
v -0.098008 8.590619 -2.416023
v -0.060517 8.355138 -2.632514
v -0.045789 8.260185 -2.830014
v -0.045789 8.290570 -2.997130
v -0.098008 8.047492 -2.419821
v -0.030259 8.199731 -2.690771
v -0.098008 7.887972 -2.397032
v -0.098008 7.386624 -2.497302
v -0.053470 7.273062 -2.704277
v -0.038402 7.225440 -2.898431
v -0.030526 7.247419 -3.015656
v -0.030526 7.302369 -3.156693
v -0.098008 7.122012 -2.264473
v -0.098008 7.307008 -2.300190
v -0.151620 8.061424 -2.061768
v -0.172629 8.085818 -1.762098
v -0.149781 7.895325 -2.062533
v -0.172629 7.932003 -1.764360
v -0.141230 7.122992 -2.066087
v -0.172629 7.163614 -1.774875
v -0.146260 7.577306 -2.063996
v -0.172629 7.604213 -1.768689
v -0.138667 6.891484 -2.067153
v -0.172629 6.961066 -1.778026
v -0.135489 6.604396 -2.068474
v -0.172629 6.709889 -1.781935
v -0.098008 6.878934 -2.332839
v -0.098008 6.605471 -2.405003
v -0.098008 6.301623 -2.461974
vt 0.286760 0.827576
vt 0.304029 0.842072
vt 0.262313 0.896590
vt 0.262313 0.864218
vt 0.320835 0.852804
vt 0.262313 0.928962
vt 0.347527 0.809635
vt 0.329456 0.802342
vt 0.308232 0.792600
vt 0.327176 0.754359
vt 0.349162 0.757845
vt 0.370759 0.756416
vt 0.335640 0.702118
vt 0.362829 0.700667
vt 0.382745 0.700148
vt 0.383562 0.648288
vt 0.363147 0.651370
vt 0.337837 0.654473
vt 0.324797 0.576677
vt 0.348867 0.573929
vt 0.369606 0.568748
vt 0.313578 0.485834
vt 0.297240 0.500333
vt 0.282147 0.514824
vt 0.243080 0.439689
vt 0.229422 0.454410
vt 0.259605 0.424783
vt 0.129842 0.071491
vt 0.161113 0.072177
vt 0.163333 0.204402
vt 0.135139 0.202500
vt 0.184144 0.072480
vt 0.189666 0.204312
vt 0.164615 0.037824
vt 0.187521 0.049984
vt 0.137895 0.037105
vt 0.190331 0.260971
vt 0.166958 0.263718
vt 0.139575 0.265461
vt 0.175855 0.323034
vt 0.151921 0.325785
vt 0.199184 0.317629
vt 0.198923 0.365874
vt 0.181335 0.377227
vt 0.217802 0.353045
vt 0.219629 0.405985
vt 0.201717 0.416276
vt 0.239390 0.392804
vt 0.252822 0.890630
vt 0.249510 0.918165
vt 0.250972 0.858341
vt 0.217286 0.888423
vt 0.216769 0.908548
vt 0.203270 0.895266
vt 0.170044 0.911645
vt 0.168065 0.905198
vt 0.100748 0.915931
vt 0.102070 0.912261
vt 0.040345 0.918147
vt 0.102309 0.908285
vt 0.164439 0.896043
vt 0.194868 0.884520
vt 0.201142 0.860918
vt 0.212761 0.862599
vt 0.202277 0.848914
vt 0.182774 0.851920
vt 0.189144 0.844500
vt 0.229867 0.859509
vt 0.235217 0.835690
vt 0.223308 0.819234
vt 0.211534 0.835779
vt 0.187184 0.791691
vt 0.203394 0.783661
vt 0.213745 0.800714
vt 0.199187 0.812495
vt 0.116571 0.837084
vt 0.117524 0.845800
vt 0.052782 0.845592
vt 0.100656 0.812740
vt 0.105711 0.821986
vt 0.156036 0.838673
vt 0.153009 0.848065
vt 0.159210 0.790567
vt 0.166736 0.805141
vt 0.169279 0.787342
vt 0.151218 0.764530
vt 0.160062 0.761915
vt 0.176673 0.759787
vt 0.194801 0.762473
vt 0.149573 0.753651
vt 0.116268 0.755031
vt 0.115838 0.744744
vt 0.081080 0.757302
vt 0.081874 0.747612
vt 0.071016 0.759669
vt 0.070405 0.748045
vt 0.052119 0.762274
vt 0.051705 0.749184
vt 0.013198 0.780770
vt 0.048199 0.735698
vt 0.166820 0.710840
vt 0.186337 0.710232
vt 0.147984 0.714557
vt 0.061319 0.727118
vt 0.067421 0.739057
vt 0.072232 0.721187
vt 0.079781 0.734643
vt 0.100663 0.704618
vt 0.113110 0.723165
vt 0.132907 0.694913
vt 0.167262 0.672435
vt 0.184140 0.662588
vt 0.133177 0.674323
vt 0.149529 0.675048
vt 0.153190 0.639806
vt 0.170923 0.637193
vt 0.161429 0.603191
vt 0.179162 0.600578
vt 0.137260 0.640383
vt 0.147140 0.605433
vt 0.184710 0.635589
vt 0.192326 0.598331
vt 0.133373 0.594129
vt 0.143683 0.587564
vt 0.125142 0.584916
vt 0.124265 0.592122
vt 0.111979 0.595412
vt 0.079141 0.610425
vt 0.106602 0.590478
vt 0.097493 0.584073
vt 0.123473 0.571451
vt 0.143350 0.569900
vt 0.163227 0.561463
vt 0.165402 0.576705
vt 0.182870 0.574886
vt 0.195124 0.572435
vt 0.199503 0.539659
vt 0.207942 0.550335
vt 0.222885 0.508148
vt 0.236387 0.521085
vt 0.221105 0.534783
vt 0.210416 0.528164
vt 0.183999 0.528901
vt 0.192948 0.535121
vt 0.157483 0.512338
vt 0.156713 0.507531
vt 0.164990 0.506611
vt 0.165874 0.512646
vt 0.175672 0.509909
vt 0.185406 0.515992
vt 0.176471 0.517736
vt 0.171397 0.514482
vt 0.140566 0.513894
vt 0.155694 0.502729
vt 0.164168 0.499341
vt 0.174483 0.497056
vt 0.189194 0.498792
vt 0.200594 0.502368
vt 0.202880 0.522797
vt 0.284493 0.440991
vt 0.297132 0.455202
vt 0.323119 0.376063
vt 0.341967 0.388784
vt 0.185406 0.515992
vt 0.209314 0.494864
vt 0.269695 0.428320
vt 0.305548 0.361617
vt 0.312502 0.348565
vt 0.332610 0.360612
vt 0.352636 0.367914
vt 0.340556 0.342072
vt 0.360392 0.347308
vt 0.316807 0.333748
vt 0.364173 0.340085
vt 0.377196 0.355094
vt 0.380141 0.363434
vt 0.374098 0.355116
vt 0.368650 0.350573
vt 0.371457 0.347590
vt 0.380081 0.354229
vt 0.377006 0.346442
vt 0.369523 0.333900
vt 0.364173 0.331655
vt 0.369078 0.321232
vt 0.374883 0.322740
vt 0.350576 0.328135
vt 0.356236 0.315872
vt 0.378428 0.315561
vt 0.395755 0.329850
vt 0.398508 0.329049
vt 0.404444 0.338556
vt 0.387434 0.326295
vt 0.391764 0.321692
vt 0.382337 0.323825
vt 0.386064 0.316875
vt 0.401221 0.327456
vt 0.396710 0.317277
vt 0.389779 0.307497
vt 0.378986 0.303051
vt 0.318114 0.329327
vt 0.338257 0.328736
vt 0.317580 0.325520
vt 0.338870 0.323678
vt 0.321090 0.321379
vt 0.314821 0.322767
vt 0.314652 0.320613
vt 0.308997 0.321240
vt 0.314534 0.318509
vt 0.321287 0.318063
vt 0.324362 0.314244
vt 0.340096 0.315401
vt 0.325943 0.298980
vt 0.341651 0.300093
vt 0.358160 0.300776
vt 0.343910 0.227996
vt 0.328337 0.227102
vt 0.327025 0.222327
vt 0.340998 0.218569
vt 0.326590 0.213741
vt 0.317547 0.218033
vt 0.318705 0.222086
vt 0.308240 0.226749
vt 0.316338 0.213613
vt 0.326582 0.202623
vt 0.341305 0.202628
vt 0.362275 0.229738
vt 0.361171 0.218886
vt 0.360067 0.201780
vt 0.339539 0.059149
vt 0.363083 0.058545
vt 0.362679 0.072965
vt 0.335790 0.073838
vt 0.390439 0.058145
vt 0.390215 0.074260
vt 0.349030 0.081231
vt 0.348686 0.103319
vt 0.335380 0.099082
vt 0.362563 0.098210
vt 0.397282 0.280920
vt 0.411326 0.291571
vt 0.396751 0.283603
vt 0.392086 0.281481
vt 0.387711 0.279533
vt 0.388391 0.273869
vt 0.392846 0.277402
vt 0.382046 0.282387
vt 0.378888 0.276935
vt 0.379780 0.292719
vt 0.373370 0.292109
vt 0.372604 0.303911
vt 0.359465 0.288682
vt 0.342644 0.287822
vt 0.326958 0.286745
vt 0.327774 0.270122
vt 0.343429 0.271149
vt 0.360669 0.272249
vt 0.361956 0.257459
vt 0.344330 0.256138
vt 0.328703 0.255157
vt 0.399037 0.277765
vt 0.395715 0.272470
vt 0.393737 0.266165
vt 0.382337 0.261351
vt 0.450194 0.274296
vt 0.453356 0.272336
vt 0.458436 0.285941
vt 0.400991 0.261527
vt 0.397793 0.255603
vt 0.411696 0.260091
vt 0.412865 0.253943
vt 0.426637 0.262563
vt 0.427810 0.256880
vt 0.440627 0.267507
vt 0.445564 0.263778
vt 0.381969 0.230082
vt 0.456517 0.269228
vt 0.450183 0.256930
vt 0.437581 0.242247
vt 0.427572 0.231993
vt 0.418750 0.230999
vt 0.412048 0.235832
vt 0.399708 0.231698
vt 0.390625 0.223540
vt 0.347371 0.195029
vt 0.362118 0.194840
vt 0.333812 0.195707
vt 0.386838 0.210614
vt 0.378658 0.215551
vt 0.378106 0.203412
vt 0.386360 0.203625
vt 0.379394 0.194399
vt 0.388001 0.194518
vt 0.407536 0.179868
vt 0.416464 0.185254
vt 0.406397 0.182626
vt 0.401651 0.183405
vt 0.399443 0.178397
vt 0.394990 0.186897
vt 0.389878 0.182995
vt 0.395521 0.167943
vt 0.392700 0.175469
vt 0.379578 0.168096
vt 0.401384 0.173092
vt 0.409776 0.178321
vt 0.378474 0.160371
vt 0.391574 0.160026
vt 0.376046 0.144921
vt 0.386873 0.145257
vt 0.383330 0.136092
vt 0.388682 0.139125
vt 0.393354 0.130592
vt 0.394535 0.134059
vt 0.402756 0.128286
vt 0.402388 0.131970
vt 0.408433 0.129350
vt 0.406001 0.132075
vt 0.415263 0.132011
vt 0.413849 0.133535
vt 0.422065 0.136835
vt 0.416396 0.130552
vt 0.395377 0.123764
vt 0.382737 0.128459
vt 0.402838 0.123495
vt 0.409992 0.125373
vt 0.373784 0.132236
vt 0.372055 0.123277
vt 0.376902 0.122359
vt 0.347726 0.169952
vt 0.362238 0.168771
vt 0.334235 0.169639
vt 0.347835 0.162503
vt 0.362275 0.160727
vt 0.334366 0.161596
vt 0.348045 0.146629
vt 0.348344 0.125292
vt 0.362447 0.123325
vt 0.362346 0.145326
vt 0.334616 0.146196
vt 0.334973 0.124195
vt 0.348497 0.115483
vt 0.362499 0.112113
vt 0.335155 0.112984
vt 0.381619 0.083547
vt 0.389184 0.084047
vt 0.385578 0.097880
vt 0.378860 0.098262
vt 0.381792 0.111407
vt 0.375365 0.111505
vt 0.262313 0.896590
vt 0.304029 0.842072
vt 0.329456 0.802342
vt 0.349162 0.757845
vt 0.362829 0.700667
vt 0.363147 0.651370
vt 0.348867 0.573929
vt 0.297240 0.500333
vt 0.243080 0.439689
vt 0.163333 0.204402
vt 0.161113 0.072177
vt 0.164615 0.037824
vt 0.166958 0.263718
vt 0.175855 0.323034
vt 0.198923 0.365874
vt 0.219629 0.405985
vt 0.252822 0.890630
vt 0.217286 0.888423
vt 0.203270 0.895266
vt 0.168065 0.905198
vt 0.102070 0.912261
vt 0.212761 0.862599
vt 0.202277 0.848914
vt 0.189144 0.844500
vt 0.229867 0.859509
vt 0.211534 0.835779
vt 0.187184 0.791691
vt 0.199187 0.812495
vt 0.116571 0.837084
vt 0.105711 0.821986
vt 0.156036 0.838673
vt 0.166736 0.805141
vt 0.169279 0.787342
vt 0.160062 0.761915
vt 0.176673 0.759787
vt 0.149573 0.753651
vt 0.115838 0.744744
vt 0.081874 0.747612
vt 0.070405 0.748045
vt 0.051705 0.749184
vt 0.166820 0.710840
vt 0.147984 0.714557
vt 0.067421 0.739057
vt 0.079781 0.734643
vt 0.113110 0.723165
vt 0.167262 0.672435
vt 0.149529 0.675048
vt 0.170923 0.637193
vt 0.153190 0.639806
vt 0.179162 0.600578
vt 0.161429 0.603191
vt 0.143683 0.587564
vt 0.125142 0.584916
vt 0.106602 0.590478
vt 0.165402 0.576705
vt 0.182870 0.574886
vt 0.199503 0.539659
vt 0.222885 0.508148
vt 0.210416 0.528164
vt 0.192948 0.535121
vt 0.164990 0.506611
vt 0.156713 0.507531
vt 0.175672 0.509909
vt 0.185406 0.515992
vt 0.202880 0.522797
vt 0.284493 0.440991
vt 0.323119 0.376063
vt 0.185406 0.515992
vt 0.332610 0.360612
vt 0.340556 0.342072
vt 0.364173 0.340085
vt 0.377196 0.355094
vt 0.371457 0.347590
vt 0.364173 0.331655
vt 0.369078 0.321232
vt 0.350576 0.328135
vt 0.356236 0.315872
vt 0.378428 0.315561
vt 0.398508 0.329049
vt 0.391764 0.321692
vt 0.386064 0.316875
vt 0.338257 0.328736
vt 0.338870 0.323678
vt 0.321090 0.321379
vt 0.314652 0.320613
vt 0.340096 0.315401
vt 0.341651 0.300093
vt 0.358160 0.300776
vt 0.343910 0.227996
vt 0.340998 0.218569
vt 0.326590 0.213741
vt 0.317547 0.218033
vt 0.341305 0.202628
vt 0.362275 0.229738
vt 0.361171 0.218886
vt 0.360067 0.201780
vt 0.339539 0.059149
vt 0.362679 0.072965
vt 0.349030 0.081231
vt 0.348686 0.103319
vt 0.362563 0.098210
vt 0.397282 0.280920
vt 0.392846 0.277402
vt 0.388391 0.273869
vt 0.378888 0.276935
vt 0.373370 0.292109
vt 0.372604 0.303911
vt 0.359465 0.288682
vt 0.342644 0.287822
vt 0.343429 0.271149
vt 0.360669 0.272249
vt 0.361956 0.257459
vt 0.344330 0.256138
vt 0.382337 0.261351
vt 0.453356 0.272336
vt 0.397793 0.255603
vt 0.412865 0.253943
vt 0.427810 0.256880
vt 0.445564 0.263778
vt 0.381969 0.230082
vt 0.362118 0.194840
vt 0.347371 0.195029
vt 0.378658 0.215551
vt 0.378106 0.203412
vt 0.379394 0.194399
vt 0.407536 0.179868
vt 0.399443 0.178397
vt 0.389878 0.182995
vt 0.379578 0.168096
vt 0.392700 0.175469
vt 0.378474 0.160371
vt 0.376046 0.144921
vt 0.383330 0.136092
vt 0.393354 0.130592
vt 0.402756 0.128286
vt 0.408433 0.129350
vt 0.415263 0.132011
vt 0.373784 0.132236
vt 0.372055 0.123277
vt 0.362238 0.168771
vt 0.347726 0.169952
vt 0.362275 0.160727
vt 0.347835 0.162503
vt 0.348045 0.146629
vt 0.362346 0.145326
vt 0.362447 0.123325
vt 0.348344 0.125292
vt 0.362499 0.112113
vt 0.348497 0.115483
vt 0.381619 0.083547
vt 0.378860 0.098262
vt 0.375365 0.111505
vn 0.9372 -0.2049 0.2823
vn 0.9315 0.2214 -0.2886
vn 0.9301 0.1955 -0.3110
vn 0.9469 -0.1710 0.2724
vn 0.9452 -0.1381 0.2957
vn 0.9286 0.1492 -0.3396
vn 0.9530 -0.0601 0.2969
vn 0.9330 0.0794 -0.3510
vn 0.9337 0.0040 -0.3580
vn 0.9591 -0.0073 0.2829
vn 0.9548 0.0515 0.2927
vn 0.9384 -0.0612 -0.3400
vn 0.9377 -0.1969 -0.2862
vn 0.9385 0.1973 0.2834
vn 0.9354 0.2340 0.2650
vn 0.9437 -0.2196 -0.2472
vn 0.9740 0.0078 0.2266
vn 0.9630 -0.0066 -0.2695
vn 0.9732 -0.0416 -0.2262
vn 0.9817 -0.0861 0.1697
vn 0.9604 -0.0186 -0.2782
vn 0.9678 0.0087 0.2517
vn 0.9575 0.0504 0.2839
vn 0.9508 -0.0469 -0.3064
vn 0.9414 0.1640 0.2946
vn 0.9476 -0.1502 -0.2820
vn 0.9371 0.1608 0.3098
vn 0.9486 -0.1481 -0.2796
vn 0.9335 0.2080 0.2921
vn 0.9475 -0.1771 -0.2664
vn 0.9543 0.2807 0.1029
vn 0.9275 -0.2654 -0.2632
vn 0.8673 0.4474 -0.2184
vn 0.9185 0.3897 0.0675
vn 0.7771 0.6256 -0.0686
vn 0.7220 0.6910 -0.0351
vn 0.7998 0.5998 -0.0220
vn 0.8199 -0.5654 0.0900
vn 0.8125 -0.5718 0.1133
vn 0.7992 -0.5584 0.2222
vn 0.7980 -0.2030 0.5674
vn 0.9925 -0.1099 0.0537
vn 0.7540 0.3995 0.5215
vn 0.8244 0.5208 0.2218
vn 0.9979 -0.0258 0.0593
vn 0.8667 -0.2914 -0.4048
vn 0.8798 -0.2858 -0.3797
vn 0.8723 -0.2487 -0.4211
vn 0.7733 0.6341 0.0020
vn 0.8263 -0.4644 0.3186
vn 0.9922 0.0729 0.1014
vn 0.7864 0.6169 0.0317
vn 0.7840 0.6136 0.0945
vn 0.8805 -0.4506 0.1470
vn 0.7995 -0.0849 0.5946
vn 0.8107 0.1857 0.5552
vn 1.0000 0.0000 0.0000
vn 0.9981 0.0304 0.0534
vn 0.8717 -0.2275 -0.4340
vn 0.9905 0.0930 0.1011
vn 0.9803 0.1207 0.1567
vn 0.8572 -0.1744 -0.4846
vn 0.9911 0.0318 0.1296
vn 0.9816 0.0622 0.1806
vn 0.7253 0.5408 0.4261
vn 0.8124 0.5633 0.1509
vn 0.8330 0.5526 -0.0284
vn 0.8688 0.4917 -0.0584
vn 0.9218 0.3876 -0.0013
vn 0.9380 0.3131 -0.1488
vn 0.9279 -0.2286 0.2944
vn 0.8729 -0.0869 -0.4802
vn 0.9853 0.0379 0.1664
vn 0.9085 -0.3064 0.2842
vn 0.8955 -0.4067 0.1808
vn 0.9342 -0.3249 0.1476
vn 0.9856 0.1538 0.0708
vn 0.9951 0.0982 -0.0142
vn 0.9995 0.0316 0.0089
vn 0.9513 -0.2975 0.0812
vn 0.8725 -0.0100 -0.4886
vn 0.9132 -0.0123 0.4073
vn 0.9857 -0.0043 0.1682
vn 0.9844 -0.0182 0.1751
vn 0.9832 -0.0401 0.1781
vn 0.9136 -0.0452 0.4042
vn 0.8946 -0.1097 0.4333
vn 0.8240 0.0384 -0.5652
vn 0.7799 0.1313 -0.6120
vn 0.8460 0.4053 0.3464
vn 0.7917 0.5916 0.1525
vn 0.7940 0.5529 -0.2528
vn 0.7772 0.6058 -0.1701
vn 0.9077 -0.2398 0.3444
vn 0.9069 -0.3890 0.1620
vn 0.9288 -0.3691 0.0341
vn 0.9077 -0.3807 0.1766
vn 0.9839 -0.0260 0.1769
vn 0.7686 0.0800 -0.6347
vn 0.7341 0.3103 -0.6040
vn 0.8086 0.3720 -0.4559
vn 0.7659 0.4451 -0.4639
vn 0.8272 -0.3068 0.4708
vn 0.9630 -0.1344 0.2337
vn 0.7761 0.6302 -0.0231
vn 0.7735 0.5226 0.3586
vn 0.7584 0.2563 0.5993
vn 0.7391 0.6708 -0.0617
vn 0.7104 -0.5662 0.4179
vn 0.8082 -0.5704 0.1467
vn 0.7659 0.6059 0.2152
vn 0.9070 -0.4211 0.0009
vn 0.9441 -0.3196 -0.0807
vn 0.9546 -0.2843 -0.0892
vn 0.9088 -0.2250 0.3513
vn 0.9198 -0.2327 0.3160
vn 0.8451 0.3664 -0.3893
vn 0.8527 0.2802 -0.4409
vn 0.9957 -0.0583 0.0724
vn 0.9418 -0.3339 -0.0401
vn 0.8863 -0.2677 0.3779
vn 0.8595 -0.3874 0.3334
vn 0.8501 -0.3503 0.3931
vn 0.8556 -0.2549 0.4506
vn 0.8771 -0.2401 0.4161
vn 0.8669 0.2419 -0.4358
vn 0.8563 0.1923 -0.4793
vn 0.8867 -0.1594 0.4340
vn 0.7061 0.6526 -0.2749
vn 0.7129 0.4121 0.5674
vn 0.6936 0.5340 0.4836
vn 0.7981 0.5234 0.2984
vn 0.7592 -0.0042 -0.6508
vn 0.7987 -0.2409 -0.5515
vn 0.8202 -0.3052 -0.4838
vn 0.8049 -0.1912 -0.5618
vn 0.8711 0.2168 -0.4408
vn 0.9091 0.0998 -0.4044
vn 0.8307 0.2403 -0.5021
vn 0.7864 0.5281 -0.3203
vn 0.5972 0.5666 0.5677
vn 0.7840 0.5027 0.3641
vn 0.9128 0.4034 0.0641
vn 0.6702 -0.2070 -0.7128
vn 0.8204 -0.3088 -0.4812
vn 0.9017 0.3585 0.2419
vn 0.9174 -0.2603 -0.3009
vn 0.9566 -0.2782 -0.0870
vn 0.8654 0.0280 0.5003
vn 0.8549 -0.0047 0.5187
vn 0.8619 0.0267 0.5063
vn 0.8502 0.4917 0.1882
vn 0.6818 0.7077 0.1855
vn 0.6629 -0.6714 0.3313
vn 0.7778 -0.6283 -0.0152
vn 0.8013 -0.2004 0.5636
vn 0.7625 -0.5259 0.3769
vn 0.7899 -0.0804 0.6079
vn 0.9995 -0.0253 0.0205
vn 0.8673 0.1419 0.4771
vn 0.8262 0.4130 0.3832
vn 0.7142 0.6394 -0.2849
vn 0.8401 0.5283 -0.1232
vn 0.6334 -0.4061 0.6587
vn 0.8451 -0.4190 0.3320
vn 0.9165 -0.1427 0.3737
vn 0.9757 0.0426 0.2151
vn 0.9846 -0.0500 0.1674
vn 0.9660 -0.2256 0.1264
vn 0.9735 -0.1979 -0.1146
vn 0.8115 -0.5463 0.2073
vn 0.8478 -0.0084 0.5303
vn 0.9905 -0.0045 -0.1373
vn 0.7364 0.5936 0.3245
vn 0.8554 0.4772 0.2012
vn 0.8575 0.4793 -0.1871
vn 0.8505 0.1535 -0.5031
vn 0.8836 0.0329 -0.4672
vn 0.8746 -0.2168 -0.4336
vn 0.9979 -0.0296 0.0581
vn 0.8054 -0.0676 0.5889
vn 0.8389 0.0902 -0.5368
vn 0.8220 -0.0468 0.5676
vn 0.9949 -0.0296 0.0967
vn 0.8431 0.0464 -0.5357
vn 0.9901 -0.0343 0.1364
vn 0.8400 -0.0534 0.5400
vn 0.8744 0.1009 -0.4746
vn 0.8180 -0.3824 -0.4296
vn 0.9074 -0.1628 -0.3874
vn 0.8785 -0.3157 -0.3586
vn 0.8016 0.5081 0.3149
vn 0.9830 -0.0801 -0.1655
vn 0.8503 0.3040 0.4295
vn 0.9198 0.3568 -0.1632
vn 0.8753 0.4801 -0.0577
vn 0.8725 0.4809 0.0870
vn 0.8741 0.4613 0.1521
vn 0.8879 0.3535 0.2944
vn 0.8651 -0.0145 0.5014
vn 0.9816 -0.0242 0.1892
vn 0.9066 0.0650 -0.4171
vn 0.9212 0.0211 -0.3886
vn 0.8355 -0.0627 -0.5459
vn 0.9231 -0.2047 -0.3255
vn 0.9736 -0.1746 -0.1473
vn 0.9813 -0.1345 -0.1378
vn 0.9908 -0.1346 -0.0152
vn 0.9919 -0.1033 0.0745
vn 0.9821 -0.1848 -0.0363
vn 0.9873 -0.1583 -0.0143
vn 0.9134 -0.3028 -0.2720
vn 0.9900 -0.0322 -0.1375
vn 0.9695 -0.2389 0.0554
vn 0.7734 -0.4282 0.4674
vn 0.8962 -0.1110 -0.4296
vn 0.9217 -0.0665 -0.3822
vn 0.9304 -0.0780 -0.3582
vn 0.8689 -0.0266 -0.4943
vn 0.8693 0.0788 -0.4879
vn 0.9596 -0.1361 -0.2461
vn 0.8000 0.5806 0.1515
vn 0.8665 0.4985 0.0269
vn 0.9117 0.3503 -0.2147
vn 0.8694 0.2867 -0.4025
vn 0.9556 -0.0797 -0.2837
vn 0.9851 0.0012 -0.1719
vn 0.9216 -0.2916 -0.2561
vn 0.9797 -0.1993 0.0227
vn 0.9797 -0.1993 0.0228
vn 0.8725 -0.4526 -0.1840
vn 0.7711 -0.4421 -0.4582
vn 0.9463 -0.0993 -0.3076
vn 0.9260 -0.0867 -0.3674
vn 0.8539 0.2703 -0.4447
vn 0.7819 0.4648 -0.4155
vn 0.8457 0.5075 -0.1650
vn 0.8904 0.4548 0.0207
vn 0.8664 0.4807 0.1350
vn 0.7956 0.5622 0.2258
vn 0.7760 -0.4225 -0.4683
vn 0.8802 -0.4586 0.1225
vn 0.9329 -0.3599 0.0146
vn 0.9358 -0.3366 -0.1050
vn 0.8984 -0.3778 -0.2238
vn 0.8222 -0.5278 -0.2132
vn 0.8356 -0.2466 -0.4909
vn 0.9982 -0.0051 -0.0593
vn 0.8505 -0.0080 0.5259
vn 0.9877 -0.0045 -0.1563
vn 0.9973 -0.0050 -0.0726
vn 0.8500 -0.0082 0.5268
vn 0.9886 -0.0157 -0.1499
vn 0.9952 -0.0047 -0.0975
vn 0.8486 -0.0080 0.5290
vn 0.8494 -0.0078 0.5276
vn 0.9966 -0.0047 -0.0821
vn 0.9870 -0.0176 -0.1595
vn 0.9763 -0.0410 -0.2125
vn 0.9835 -0.0181 -0.1802
vn 0.9938 -0.0048 -0.1110
vn 0.8481 -0.0084 0.5297
vn 0.9926 -0.0047 -0.1212
vn 0.8480 -0.0084 0.5299
vn 0.8474 0.0556 -0.5280
vn 0.8270 0.1223 -0.5487
vn 0.7977 0.1583 -0.5819
vn 0.7340 0.2305 -0.6388
vn 0.9362 -0.2690 -0.2262
vn 0.9955 -0.0001 -0.0947
vn 0.9916 0.0113 -0.1289
vn 0.9837 0.0208 -0.1784
vn -0.9372 -0.2049 0.2823
vn -0.9315 0.2214 -0.2886
vn -0.9301 0.1955 -0.3110
vn -0.9469 -0.1710 0.2724
vn -0.9452 -0.1381 0.2957
vn -0.9286 0.1492 -0.3396
vn -0.9530 -0.0601 0.2969
vn -0.9330 0.0794 -0.3510
vn -0.9337 0.0040 -0.3580
vn -0.9591 -0.0073 0.2829
vn -0.9548 0.0515 0.2927
vn -0.9384 -0.0612 -0.3400
vn -0.9377 -0.1969 -0.2862
vn -0.9385 0.1973 0.2834
vn -0.9354 0.2340 0.2650
vn -0.9437 -0.2196 -0.2472
vn -0.9740 0.0078 0.2266
vn -0.9630 -0.0066 -0.2695
vn -0.9732 -0.0416 -0.2262
vn -0.9817 -0.0861 0.1697
vn -0.9604 -0.0186 -0.2782
vn -0.9678 0.0087 0.2517
vn -0.9575 0.0504 0.2839
vn -0.9508 -0.0469 -0.3064
vn -0.9414 0.1640 0.2946
vn -0.9476 -0.1502 -0.2820
vn -0.9371 0.1608 0.3098
vn -0.9486 -0.1481 -0.2796
vn -0.9335 0.2080 0.2921
vn -0.9475 -0.1771 -0.2664
vn -0.9543 0.2807 0.1029
vn -0.9275 -0.2654 -0.2632
vn -0.8673 0.4474 -0.2184
vn -0.9185 0.3897 0.0675
vn -0.7771 0.6256 -0.0686
vn -0.7220 0.6910 -0.0351
vn -0.7998 0.5998 -0.0220
vn -0.8199 -0.5654 0.0900
vn -0.8125 -0.5718 0.1133
vn -0.7992 -0.5584 0.2222
vn -0.7980 -0.2030 0.5674
vn -0.9925 -0.1099 0.0537
vn -0.7540 0.3995 0.5215
vn -0.8244 0.5208 0.2218
vn -0.9979 -0.0258 0.0593
vn -0.8667 -0.2914 -0.4048
vn -0.8798 -0.2858 -0.3797
vn -0.8723 -0.2487 -0.4211
vn -0.7733 0.6341 0.0020
vn -0.8263 -0.4644 0.3186
vn -0.9922 0.0729 0.1014
vn -0.7864 0.6169 0.0317
vn -0.7840 0.6136 0.0945
vn -0.8805 -0.4506 0.1470
vn -0.7995 -0.0849 0.5946
vn -0.8107 0.1857 0.5552
vn -1.0000 0.0000 0.0000
vn -0.9981 0.0304 0.0534
vn -0.8717 -0.2275 -0.4340
vn -0.9905 0.0930 0.1011
vn -0.9803 0.1207 0.1567
vn -0.8572 -0.1744 -0.4846
vn -0.9911 0.0318 0.1296
vn -0.9816 0.0622 0.1806
vn -0.7253 0.5408 0.4261
vn -0.8124 0.5633 0.1509
vn -0.8330 0.5526 -0.0284
vn -0.8688 0.4917 -0.0584
vn -0.9218 0.3876 -0.0013
vn -0.9380 0.3131 -0.1488
vn -0.9279 -0.2286 0.2944
vn -0.8729 -0.0869 -0.4802
vn -0.9853 0.0379 0.1664
vn -0.9085 -0.3064 0.2842
vn -0.8955 -0.4067 0.1808
vn -0.9342 -0.3249 0.1476
vn -0.9856 0.1538 0.0708
vn -0.9951 0.0982 -0.0142
vn -0.9995 0.0316 0.0089
vn -0.9513 -0.2975 0.0812
vn -0.8725 -0.0100 -0.4886
vn -0.9132 -0.0123 0.4073
vn -0.9857 -0.0043 0.1682
vn -0.9844 -0.0182 0.1751
vn -0.9832 -0.0401 0.1781
vn -0.9136 -0.0452 0.4042
vn -0.8946 -0.1097 0.4333
vn -0.8240 0.0384 -0.5652
vn -0.7799 0.1313 -0.6120
vn -0.8460 0.4053 0.3464
vn -0.7917 0.5916 0.1525
vn -0.7940 0.5529 -0.2528
vn -0.7772 0.6058 -0.1701
vn -0.9077 -0.2398 0.3444
vn -0.9069 -0.3890 0.1620
vn -0.9288 -0.3691 0.0341
vn -0.9077 -0.3807 0.1766
vn -0.9839 -0.0260 0.1769
vn -0.7686 0.0800 -0.6347
vn -0.7341 0.3103 -0.6040
vn -0.8086 0.3720 -0.4559
vn -0.7659 0.4451 -0.4639
vn -0.8272 -0.3068 0.4708
vn -0.9630 -0.1344 0.2337
vn -0.7761 0.6302 -0.0231
vn -0.7735 0.5226 0.3586
vn -0.7584 0.2563 0.5993
vn -0.7391 0.6708 -0.0617
vn -0.7104 -0.5662 0.4179
vn -0.8082 -0.5704 0.1467
vn -0.7659 0.6059 0.2152
vn -0.9070 -0.4211 0.0009
vn -0.9441 -0.3196 -0.0807
vn -0.9546 -0.2843 -0.0892
vn -0.9088 -0.2250 0.3513
vn -0.9198 -0.2327 0.3160
vn -0.8451 0.3664 -0.3893
vn -0.8527 0.2802 -0.4409
vn -0.9957 -0.0583 0.0724
vn -0.9418 -0.3339 -0.0401
vn -0.8863 -0.2677 0.3779
vn -0.8595 -0.3874 0.3334
vn -0.8501 -0.3503 0.3931
vn -0.8556 -0.2549 0.4506
vn -0.8771 -0.2401 0.4161
vn -0.8669 0.2419 -0.4358
vn -0.8563 0.1923 -0.4793
vn -0.8867 -0.1594 0.4340
vn -0.7061 0.6526 -0.2749
vn -0.7129 0.4121 0.5674
vn -0.6936 0.5340 0.4836
vn -0.7981 0.5234 0.2984
vn -0.7592 -0.0042 -0.6508
vn -0.7987 -0.2409 -0.5515
vn -0.8202 -0.3052 -0.4838
vn -0.8049 -0.1912 -0.5618
vn -0.8711 0.2168 -0.4408
vn -0.9091 0.0998 -0.4044
vn -0.8307 0.2403 -0.5021
vn -0.7864 0.5281 -0.3203
vn -0.5972 0.5666 0.5677
vn -0.7840 0.5027 0.3641
vn -0.9128 0.4034 0.0641
vn -0.6702 -0.2070 -0.7128
vn -0.8204 -0.3088 -0.4812
vn -0.9017 0.3585 0.2419
vn -0.9174 -0.2603 -0.3009
vn -0.9566 -0.2782 -0.0870
vn -0.8654 0.0280 0.5003
vn -0.8549 -0.0047 0.5187
vn -0.8619 0.0267 0.5063
vn -0.8502 0.4917 0.1882
vn -0.6818 0.7077 0.1855
vn -0.6629 -0.6714 0.3313
vn -0.7778 -0.6283 -0.0152
vn -0.8013 -0.2004 0.5636
vn -0.7625 -0.5259 0.3769
vn -0.7899 -0.0804 0.6079
vn -0.9995 -0.0253 0.0205
vn -0.8673 0.1419 0.4771
vn -0.8262 0.4130 0.3832
vn -0.7142 0.6394 -0.2849
vn -0.8401 0.5283 -0.1232
vn -0.6334 -0.4061 0.6587
vn -0.8451 -0.4190 0.3320
vn -0.9165 -0.1427 0.3737
vn -0.9757 0.0426 0.2151
vn -0.9846 -0.0500 0.1674
vn -0.9660 -0.2256 0.1264
vn -0.9735 -0.1979 -0.1146
vn -0.8115 -0.5463 0.2073
vn -0.8478 -0.0084 0.5303
vn -0.9905 -0.0045 -0.1373
vn -0.7364 0.5936 0.3245
vn -0.8554 0.4772 0.2012
vn -0.8575 0.4793 -0.1871
vn -0.8505 0.1535 -0.5031
vn -0.8836 0.0329 -0.4672
vn -0.8746 -0.2168 -0.4336
vn -0.9979 -0.0296 0.0581
vn -0.8054 -0.0676 0.5889
vn -0.8389 0.0902 -0.5368
vn -0.8220 -0.0468 0.5676
vn -0.9949 -0.0296 0.0967
vn -0.8431 0.0464 -0.5357
vn -0.9901 -0.0343 0.1364
vn -0.8400 -0.0534 0.5400
vn -0.8744 0.1009 -0.4746
vn -0.8180 -0.3824 -0.4296
vn -0.9074 -0.1628 -0.3874
vn -0.8785 -0.3157 -0.3586
vn -0.8016 0.5081 0.3149
vn -0.9830 -0.0801 -0.1655
vn -0.8503 0.3040 0.4295
vn -0.9198 0.3568 -0.1632
vn -0.8753 0.4801 -0.0577
vn -0.8725 0.4809 0.0870
vn -0.8741 0.4613 0.1521
vn -0.8879 0.3535 0.2944
vn -0.8651 -0.0145 0.5014
vn -0.9816 -0.0242 0.1892
vn -0.9066 0.0650 -0.4171
vn -0.9212 0.0211 -0.3886
vn -0.8355 -0.0627 -0.5459
vn -0.9231 -0.2047 -0.3255
vn -0.9736 -0.1746 -0.1473
vn -0.9813 -0.1345 -0.1378
vn -0.9908 -0.1346 -0.0152
vn -0.9919 -0.1033 0.0745
vn -0.9821 -0.1848 -0.0363
vn -0.9873 -0.1583 -0.0143
vn -0.9134 -0.3028 -0.2720
vn -0.9900 -0.0322 -0.1375
vn -0.9695 -0.2389 0.0554
vn -0.7734 -0.4282 0.4674
vn -0.8962 -0.1110 -0.4296
vn -0.9217 -0.0665 -0.3822
vn -0.9304 -0.0780 -0.3582
vn -0.8689 -0.0266 -0.4943
vn -0.8693 0.0788 -0.4879
vn -0.9596 -0.1361 -0.2461
vn -0.8000 0.5806 0.1515
vn -0.8665 0.4985 0.0269
vn -0.9117 0.3503 -0.2147
vn -0.8694 0.2867 -0.4025
vn -0.9556 -0.0797 -0.2837
vn -0.9851 0.0012 -0.1719
vn -0.9216 -0.2916 -0.2561
vn -0.9797 -0.1993 0.0227
vn -0.9797 -0.1993 0.0228
vn -0.8725 -0.4526 -0.1840
vn -0.7711 -0.4421 -0.4582
vn -0.9463 -0.0993 -0.3076
vn -0.9260 -0.0867 -0.3674
vn -0.8539 0.2703 -0.4447
vn -0.7819 0.4648 -0.4155
vn -0.8457 0.5075 -0.1650
vn -0.8904 0.4548 0.0207
vn -0.8664 0.4807 0.1350
vn -0.7956 0.5622 0.2258
vn -0.7760 -0.4225 -0.4683
vn -0.8802 -0.4586 0.1225
vn -0.9329 -0.3599 0.0146
vn -0.9358 -0.3366 -0.1050
vn -0.8984 -0.3778 -0.2238
vn -0.8222 -0.5278 -0.2132
vn -0.8356 -0.2466 -0.4909
vn -0.9982 -0.0051 -0.0593
vn -0.8505 -0.0080 0.5259
vn -0.9877 -0.0045 -0.1563
vn -0.9973 -0.0050 -0.0726
vn -0.8500 -0.0082 0.5268
vn -0.9886 -0.0157 -0.1499
vn -0.9952 -0.0047 -0.0975
vn -0.8486 -0.0080 0.5290
vn -0.8494 -0.0078 0.5276
vn -0.9966 -0.0047 -0.0821
vn -0.9870 -0.0176 -0.1595
vn -0.9763 -0.0410 -0.2125
vn -0.9835 -0.0181 -0.1802
vn -0.9938 -0.0048 -0.1110
vn -0.8481 -0.0084 0.5297
vn -0.9926 -0.0047 -0.1212
vn -0.8480 -0.0084 0.5299
vn -0.8474 0.0556 -0.5280
vn -0.8270 0.1223 -0.5487
vn -0.7977 0.1583 -0.5819
vn -0.7340 0.2305 -0.6388
vn -0.9362 -0.2690 -0.2262
vn -0.9955 -0.0001 -0.0947
vn -0.9916 0.0113 -0.1289
vn -0.9837 0.0208 -0.1784
usemtl Material
s off
f 213/199/239 349/200/239 239/201/239 211/202/239
f 239/201/240 349/200/240 215/203/240 214/204/240
f 217/205/241 215/203/241 349/200/241 350/206/241
f 208/207/242 350/206/242 349/200/242 213/199/242
f 209/208/243 351/209/243 350/206/243 208/207/243
f 218/210/244 217/205/244 350/206/244 351/209/244
f 210/211/245 352/212/245 351/209/245 209/208/245
f 219/213/246 218/210/246 351/209/246 352/212/246
f 220/214/247 219/213/247 352/212/247 353/215/247
f 206/216/248 353/215/248 352/212/248 210/211/248
f 212/217/249 354/218/249 353/215/249 206/216/249
f 216/219/250 220/214/250 353/215/250 354/218/250
f 222/220/251 216/219/251 354/218/251 355/221/251
f 207/222/252 355/221/252 354/218/252 212/217/252
f 356/223/253 355/221/253 207/222/253 201/224/253
f 223/225/254 222/220/254 355/221/254 356/223/254
f 365/226/255 364/227/255 362/228/255 205/229/255
f 364/227/256 366/230/256 221/231/256 362/228/256
f 366/230/257 364/227/257 363/232/257 226/233/257
f 363/232/258 364/227/258 365/226/258 202/234/258
f 221/231/259 367/235/259 361/236/259 362/228/259
f 205/229/260 362/228/260 361/236/260 360/237/260
f 360/237/261 361/236/261 358/238/261 203/239/261
f 361/236/262 367/235/262 225/240/262 358/238/262
f 203/239/263 358/238/263 357/241/263 204/242/263
f 225/240/264 224/243/264 357/241/264 358/238/264
f 370/244/265 368/245/265 204/242/265 357/241/265
f 224/243/266 369/246/266 370/244/266 357/241/266
f 368/245/267 370/244/267 356/223/267 201/224/267
f 356/223/268 370/244/268 369/246/268 223/225/268
f 371/247/269 239/201/269 214/204/269 323/248/269
f 239/201/270 371/247/270 372/249/270 211/202/270
f 373/250/271 330/251/271 375/252/271
f 330/251/272 373/250/272 371/247/272 323/248/272
f 329/253/273 374/254/273 375/252/273 330/251/273
f 328/255/274 376/256/274 374/254/274 329/253/274
f 324/257/275 376/256/275 328/255/275
f 325/258/276 376/256/276 324/257/276
f 325/258/277 326/259/277 374/254/277 376/256/277
f 326/259/278 327/260/278 375/252/278 374/254/278
f 240/261/279 377/262/279 375/252/279 327/260/279
f 375/252/280 377/262/280 373/250/280
f 377/262/281 240/261/281 379/263/281
f 336/264/282 378/265/282 379/263/282 240/261/282
f 380/266/283 371/247/283 373/250/283 377/262/283
f 238/267/284 372/249/284 371/247/284 380/266/284
f 389/268/285 238/267/285 380/266/285 390/269/285
f 392/270/286 391/271/286 234/272/286 381/273/286
f 384/274/287 339/275/287 242/276/287
f 338/277/288 385/278/288 242/276/288
f 242/276/289 385/278/289 384/274/289
f 339/275/290 384/274/290 383/279/290 340/280/290
f 340/280/291 383/279/291 378/265/291 336/264/291
f 337/281/292 386/282/292 385/278/292 338/277/292
f 386/282/293 337/281/293 387/283/293
f 243/284/294 388/285/294 387/283/294 337/281/294
f 383/279/295 384/274/295 385/278/295 386/282/295
f 383/279/296 386/282/296 381/273/296 378/265/296
f 234/272/297 389/268/297 390/269/297 381/273/297
f 378/265/298 381/273/298 390/269/298 379/263/298
f 379/263/299 390/269/299 380/266/299 377/262/299
f 382/286/300 235/287/300 391/271/300 392/270/300
f 387/283/301 392/270/301 381/273/301 386/282/301
f 382/286/302 392/270/302 387/283/302 388/285/302
f 388/285/303 243/284/303 393/288/303
f 395/289/304 396/290/304 393/288/304 243/284/304
f 334/291/305 394/292/305 396/290/305 395/289/305
f 335/293/306 397/294/306 394/292/306 334/291/306
f 397/294/307 335/293/307 398/295/307 399/296/307
f 331/297/308 399/296/308 398/295/308
f 332/298/309 399/296/309 331/297/309
f 400/299/310 236/300/310 235/287/310 382/286/310
f 388/285/311 401/301/311 400/299/311 382/286/311
f 332/298/312 405/302/312 404/303/312 399/296/312
f 405/302/313 333/304/313 403/305/313 404/303/313
f 333/304/314 348/306/314 402/307/314 403/305/314
f 399/296/315 404/303/315 397/294/315
f 397/294/316 404/303/316 403/305/316 394/292/316
f 394/292/317 403/305/317 402/307/317 396/290/317
f 396/290/295 402/307/295 401/301/295 393/288/295
f 393/288/295 401/301/295 388/285/295
f 348/306/318 244/308/318 401/301/318 402/307/318
f 407/309/319 232/310/319 236/300/319 400/299/319
f 347/311/320 406/312/320 401/301/320 244/308/320
f 400/299/321 401/301/321 406/312/321 407/309/321
f 406/312/322 408/313/322 409/314/322 407/309/322
f 408/313/323 410/315/323 411/316/323 409/314/323
f 347/311/324 245/317/324 408/313/324 406/312/324
f 245/317/325 346/318/325 410/315/325 408/313/325
f 412/319/326 232/310/326 407/309/326 409/314/326
f 409/314/327 411/316/327 237/320/327 412/319/327
f 343/321/328 414/322/328 410/315/328 346/318/328
f 415/323/329 414/322/329 343/321/329 416/324/329
f 344/325/330 241/326/330 417/327/330
f 344/325/331 417/327/331 415/323/331 416/324/331
f 345/328/332 417/327/332 241/326/332
f 345/328/333 342/329/333 415/323/333 417/327/333
f 414/322/334 415/323/334 342/329/334 419/330/334
f 341/331/335 418/332/335 414/322/335 419/330/335
f 414/322/295 418/332/295 410/315/295
f 411/316/336 410/315/336 418/332/336 421/333/336
f 413/334/337 237/320/337 411/316/337 421/333/337
f 424/335/338 422/336/338 413/334/338 421/333/338
f 426/337/339 233/338/339 423/339/339 425/340/339
f 423/339/340 422/336/340 424/335/340 425/340/340
f 317/341/341 420/342/341 418/332/341 341/331/341
f 420/342/342 424/335/342 421/333/342 418/332/342
f 322/343/343 429/344/343 428/345/343 430/346/343
f 433/347/344 427/348/344 318/349/344 434/350/344
f 318/349/345 427/348/345 420/342/345 317/341/345
f 260/351/346 429/344/346 322/343/346
f 321/352/347 429/344/347 260/351/347
f 428/345/348 429/344/348 321/352/348 431/353/348
f 428/345/349 433/347/349 434/350/349 430/346/349
f 431/353/350 319/354/350 433/347/350 428/345/350
f 319/354/351 432/355/351 427/348/351 433/347/351
f 320/356/352 427/348/352 432/355/352
f 426/337/353 425/340/353 435/357/353
f 425/340/354 424/335/354 420/342/354 435/357/354
f 437/358/355 227/359/355 233/338/355 426/337/355
f 436/360/356 230/361/356 227/359/356 437/358/356
f 438/362/357 435/357/357 420/342/357
f 320/356/358 435/357/358 438/362/358
f 435/357/359 320/356/359 426/337/359
f 320/356/360 247/363/360 426/337/360
f 248/364/361 437/358/361 426/337/361 247/363/361
f 249/365/362 436/360/362 437/358/362 248/364/362
f 249/365/363 441/366/363 440/367/363 436/360/363
f 259/368/364 230/361/364 436/360/364 440/367/364
f 439/369/365 254/370/365 259/368/365 440/367/365
f 313/371/366 439/369/366 440/367/366 441/366/366
f 439/369/367 443/372/367 254/370/367
f 445/373/368 257/374/368 253/375/368
f 253/375/369 252/376/369 444/377/369 445/373/369
f 252/376/370 254/370/370 443/372/370 444/377/370
f 257/374/371 445/373/371 255/378/371
f 255/378/372 445/373/372 444/377/372 256/379/372
f 444/377/373 443/372/373 258/380/373 256/379/373
f 443/372/374 446/381/374 258/380/374
f 446/381/375 447/382/375 309/383/375 258/380/375
f 448/384/376 446/381/376 443/372/376 439/369/376
f 447/382/377 446/381/377 448/384/377 453/385/377
f 447/382/378 454/386/378 309/383/378
f 310/387/379 456/388/379 307/389/379
f 310/387/380 308/390/380 455/391/380 456/388/380
f 457/392/381 309/383/381 454/386/381 458/393/381
f 307/389/382 456/388/382 311/394/382
f 311/394/383 456/388/383 455/391/383 304/395/383
f 308/390/384 457/392/384 458/393/384 455/391/384
f 304/395/385 455/391/385 458/393/385 306/396/385
f 306/396/386 458/393/386 454/386/386 305/397/386
f 439/369/387 313/371/387 450/398/387 459/399/387
f 442/400/388 460/401/388 459/399/388 450/398/388
f 448/384/295 439/369/295 459/399/295
f 460/401/389 442/400/389 461/402/389
f 449/403/390 462/404/390 461/402/390 442/400/390
f 250/405/391 462/404/391 449/403/391
f 451/406/392 462/404/392 250/405/392
f 451/406/393 452/407/393 461/402/393 462/404/393
f 314/408/394 463/409/394 460/401/394 452/407/394
f 461/402/395 452/407/395 460/401/395
f 453/385/295 460/401/295 463/409/295
f 459/399/295 460/401/295 448/384/295
f 453/385/295 448/384/295 460/401/295
f 484/410/396 485/411/396 463/409/396 314/408/396
f 486/412/397 453/385/397 463/409/397 485/411/397
f 229/413/398 315/414/398 465/415/398 469/416/398
f 469/416/399 465/415/399 468/417/399
f 470/418/400 466/419/400 246/420/400
f 466/419/401 470/418/401 468/417/401 465/415/401
f 246/420/402 467/421/402 470/418/402
f 467/421/403 316/422/403 468/417/403 470/418/403
f 471/423/404 469/416/404 468/417/404 316/422/404
f 464/424/405 229/413/405 469/416/405 472/425/405
f 471/423/406 473/426/406 472/425/406 469/416/406
f 251/427/407 474/428/407 475/429/407 477/430/407
f 228/431/408 476/432/408 475/429/408 474/428/408
f 475/429/409 478/433/409 477/430/409
f 545/434/410 544/435/410 477/430/410 478/433/410
f 545/434/411 478/433/411 475/429/411 543/436/411
f 483/437/412 299/438/412 302/439/412
f 495/440/413 303/441/413 482/442/413 496/443/413
f 303/441/414 301/444/414 481/445/414 482/442/414
f 301/444/415 312/446/415 480/447/415 481/445/415
f 312/446/416 305/397/416 479/448/416 480/447/416
f 454/386/417 479/448/417 305/397/417
f 454/386/295 447/382/295 479/448/295
f 489/449/418 486/412/418 485/411/418 488/450/418
f 487/451/419 488/450/419 485/411/419 484/410/419
f 453/385/420 486/412/420 479/448/420 447/382/420
f 490/452/421 491/453/421 488/450/421 487/451/421
f 492/454/422 489/449/422 488/450/422 491/453/422
f 480/447/423 479/448/423 486/412/423 489/449/423
f 506/455/424 492/454/424 491/453/424 505/456/424
f 504/457/425 505/456/425 491/453/425 490/452/425
f 481/445/426 480/447/426 489/449/426 492/454/426
f 299/438/427 483/437/427 300/458/427
f 494/459/428 496/443/428 482/442/428 296/460/428
f 300/458/429 483/437/429 496/443/429 494/459/429
f 302/439/430 495/440/430 496/443/430 483/437/430
f 497/461/431 296/460/431 482/442/431 481/445/431
f 298/462/432 502/463/432 285/464/432
f 493/465/433 296/460/433 497/461/433 498/466/433
f 295/467/434 493/465/434 498/466/434 499/468/434
f 294/469/435 295/467/435 499/468/435 500/470/435
f 293/471/436 294/469/436 500/470/436 501/472/436
f 298/462/437 293/471/437 501/472/437 502/463/437
f 315/414/438 229/413/438 505/456/438 504/457/438
f 464/424/439 506/455/439 505/456/439 229/413/439
f 492/454/440 506/455/440 497/461/440 481/445/440
f 464/424/441 503/473/441 497/461/441 506/455/441
f 285/464/442 502/463/442 297/474/442
f 297/474/443 502/463/443 501/472/443 286/475/443
f 286/475/444 501/472/444 500/470/444 287/476/444
f 287/476/445 500/470/445 288/477/445
f 288/477/446 500/470/446 290/478/446
f 290/478/447 500/470/447 289/479/447
f 500/470/448 499/468/448 289/479/448
f 289/479/449 499/468/449 498/466/449 291/480/449
f 292/481/450 291/480/450 503/473/450
f 497/461/451 503/473/451 291/480/451 498/466/451
f 471/423/452 509/482/452 507/483/452 473/426/452
f 471/423/453 316/422/453 508/484/453 509/482/453
f 231/485/454 292/481/454 503/473/454 510/486/454
f 472/425/455 510/486/455 503/473/455 464/424/455
f 473/426/456 511/487/456 510/486/456 472/425/456
f 284/488/457 231/485/457 510/486/457 511/487/457
f 512/489/458 283/490/458 284/488/458 511/487/458
f 507/483/459 512/489/459 511/487/459 473/426/459
f 515/491/460 269/492/460 271/493/460
f 271/493/461 270/494/461 514/495/461 515/491/461
f 270/494/462 272/496/462 513/497/462 514/495/462
f 272/496/463 283/490/463 512/489/463 513/497/463
f 268/498/464 517/499/464 513/497/464 516/500/464
f 513/497/465 512/489/465 516/500/465
f 266/501/466 514/495/466 268/498/466
f 268/498/467 514/495/467 517/499/467
f 514/495/468 513/497/468 517/499/468
f 273/502/469 515/491/469 514/495/469 266/501/469
f 269/492/470 515/491/470 273/502/470
f 518/503/471 267/504/471 268/498/471 516/500/471
f 359/505/472 264/506/472 267/504/472 518/503/472
f 519/507/473 265/508/473 264/506/473 359/505/473
f 520/509/474 263/510/474 265/508/474 519/507/474
f 521/511/475 280/512/475 263/510/475 520/509/475
f 522/513/476 279/514/476 280/512/476 521/511/476
f 523/515/477 282/516/477 279/514/477 522/513/477
f 282/516/478 523/515/478 262/517/478
f 262/517/479 523/515/479 281/518/479
f 261/519/480 520/509/480 519/507/480 275/520/480
f 278/521/481 521/511/481 520/509/481 261/519/481
f 274/522/482 522/513/482 521/511/482 278/521/482
f 281/518/483 523/515/483 522/513/483 274/522/483
f 275/520/484 519/507/484 525/523/484
f 524/524/485 276/525/485 275/520/485 525/523/485
f 519/507/295 359/505/295 525/523/295
f 509/482/486 528/526/486 526/527/486 507/483/486
f 509/482/487 508/484/487 527/528/487 528/526/487
f 507/483/488 526/527/488 516/500/488 512/489/488
f 528/526/489 531/529/489 529/530/489 526/527/489
f 528/526/490 527/528/490 530/531/490 531/529/490
f 518/503/491 516/500/491 526/527/491 529/530/491
f 539/532/492 536/533/492 534/534/492 537/535/492
f 539/532/493 538/536/493 535/537/493 536/533/493
f 531/529/494 530/531/494 538/536/494 539/532/494
f 531/529/495 539/532/495 537/535/495 529/530/495
f 359/505/496 518/503/496 529/530/496 537/535/496
f 534/534/497 524/524/497 525/523/497
f 525/523/498 359/505/498 537/535/498 534/534/498
f 536/533/499 542/538/499 540/539/499 534/534/499
f 536/533/500 535/537/500 541/540/500 542/538/500
f 542/538/501 545/434/501 543/436/501 540/539/501
f 542/538/502 541/540/502 544/435/502 545/434/502
f 548/541/503 476/432/503 533/542/503
f 533/542/504 277/543/504 547/544/504 548/541/504
f 277/543/505 532/545/505 546/546/505 547/544/505
f 532/545/506 276/525/506 524/524/506 546/546/506
f 476/432/507 548/541/507 475/429/507
f 475/429/508 548/541/508 547/544/508 543/436/508
f 543/436/509 547/544/509 546/546/509 540/539/509
f 524/524/510 534/534/510 540/539/510 546/546/510
f 213/199/511 211/202/511 550/547/511 552/548/511
f 550/547/512 214/204/512 215/203/512 552/548/512
f 217/205/513 553/549/513 552/548/513 215/203/513
f 208/207/514 213/199/514 552/548/514 553/549/514
f 209/208/515 208/207/515 553/549/515 554/550/515
f 218/210/516 554/550/516 553/549/516 217/205/516
f 210/211/517 209/208/517 554/550/517 555/551/517
f 219/213/518 555/551/518 554/550/518 218/210/518
f 220/214/519 556/552/519 555/551/519 219/213/519
f 206/216/520 210/211/520 555/551/520 556/552/520
f 212/217/521 206/216/521 556/552/521 557/553/521
f 216/219/522 557/553/522 556/552/522 220/214/522
f 222/220/523 558/554/523 557/553/523 216/219/523
f 207/222/524 212/217/524 557/553/524 558/554/524
f 559/555/525 201/224/525 207/222/525 558/554/525
f 223/225/526 559/555/526 558/554/526 222/220/526
f 365/226/527 205/229/527 564/556/527 566/557/527
f 566/557/528 564/556/528 221/231/528 366/230/528
f 366/230/529 226/233/529 565/558/529 566/557/529
f 565/558/530 202/234/530 365/226/530 566/557/530
f 221/231/531 564/556/531 563/559/531 367/235/531
f 205/229/532 360/237/532 563/559/532 564/556/532
f 360/237/533 203/239/533 561/560/533 563/559/533
f 563/559/534 561/560/534 225/240/534 367/235/534
f 203/239/535 204/242/535 560/561/535 561/560/535
f 225/240/536 561/560/536 560/561/536 224/243/536
f 567/562/537 560/561/537 204/242/537 368/245/537
f 224/243/538 560/561/538 567/562/538 369/246/538
f 368/245/539 201/224/539 559/555/539 567/562/539
f 559/555/540 223/225/540 369/246/540 567/562/540
f 568/563/541 323/248/541 214/204/541 550/547/541
f 550/547/542 211/202/542 372/249/542 568/563/542
f 569/564/543 571/565/543 330/251/543
f 330/251/544 323/248/544 568/563/544 569/564/544
f 329/253/545 330/251/545 571/565/545 570/566/545
f 328/255/546 329/253/546 570/566/546 572/567/546
f 324/257/547 328/255/547 572/567/547
f 325/258/548 324/257/548 572/567/548
f 325/258/549 572/567/549 570/566/549 326/259/549
f 326/259/550 570/566/550 571/565/550 327/260/550
f 240/261/551 327/260/551 571/565/551 573/568/551
f 571/565/552 569/564/552 573/568/552
f 573/568/553 575/569/553 240/261/553
f 336/264/554 240/261/554 575/569/554 574/570/554
f 576/571/555 573/568/555 569/564/555 568/563/555
f 238/267/556 576/571/556 568/563/556 372/249/556
f 389/268/557 585/572/557 576/571/557 238/267/557
f 586/573/558 577/574/558 234/272/558 391/271/558
f 580/575/559 242/276/559 339/275/559
f 338/277/560 242/276/560 581/576/560
f 242/276/561 580/575/561 581/576/561
f 339/275/562 340/280/562 579/577/562 580/575/562
f 340/280/563 336/264/563 574/570/563 579/577/563
f 337/281/564 338/277/564 581/576/564 582/578/564
f 582/578/565 583/579/565 337/281/565
f 243/284/566 337/281/566 583/579/566 584/580/566
f 579/577/567 582/578/567 581/576/567 580/575/567
f 579/577/568 574/570/568 577/574/568 582/578/568
f 234/272/569 577/574/569 585/572/569 389/268/569
f 574/570/570 575/569/570 585/572/570 577/574/570
f 575/569/571 573/568/571 576/571/571 585/572/571
f 578/581/572 586/573/572 391/271/572 235/287/572
f 583/579/573 582/578/573 577/574/573 586/573/573
f 578/581/574 584/580/574 583/579/574 586/573/574
f 584/580/575 587/582/575 243/284/575
f 395/289/576 243/284/576 587/582/576 589/583/576
f 334/291/577 395/289/577 589/583/577 588/584/577
f 335/293/578 334/291/578 588/584/578 590/585/578
f 590/585/579 591/586/579 398/295/579 335/293/579
f 331/297/580 398/295/580 591/586/580
f 332/298/581 331/297/581 591/586/581
f 592/587/582 578/581/582 235/287/582 236/300/582
f 584/580/583 578/581/583 592/587/583 593/588/583
f 332/298/584 591/586/584 596/589/584 405/302/584
f 405/302/585 596/589/585 595/590/585 333/304/585
f 333/304/586 595/590/586 594/591/586 348/306/586
f 591/586/587 590/585/587 596/589/587
f 590/585/588 588/584/588 595/590/588 596/589/588
f 588/584/589 589/583/589 594/591/589 595/590/589
f 589/583/567 587/582/567 593/588/567 594/591/567
f 587/582/567 584/580/567 593/588/567
f 348/306/590 594/591/590 593/588/590 244/308/590
f 598/592/591 592/587/591 236/300/591 232/310/591
f 347/311/592 244/308/592 593/588/592 597/593/592
f 592/587/593 598/592/593 597/593/593 593/588/593
f 597/593/594 598/592/594 600/594/594 599/595/594
f 599/595/595 600/594/595 602/596/595 601/597/595
f 347/311/596 597/593/596 599/595/596 245/317/596
f 245/317/597 599/595/597 601/597/597 346/318/597
f 412/319/598 600/594/598 598/592/598 232/310/598
f 600/594/599 412/319/599 237/320/599 602/596/599
f 343/321/600 346/318/600 601/597/600 603/598/600
f 604/599/601 416/324/601 343/321/601 603/598/601
f 344/325/602 605/600/602 241/326/602
f 344/325/603 416/324/603 604/599/603 605/600/603
f 345/328/604 241/326/604 605/600/604
f 345/328/605 605/600/605 604/599/605 342/329/605
f 603/598/606 419/330/606 342/329/606 604/599/606
f 341/331/607 419/330/607 603/598/607 606/601/607
f 603/598/567 601/597/567 606/601/567
f 602/596/608 608/602/608 606/601/608 601/597/608
f 413/334/609 608/602/609 602/596/609 237/320/609
f 609/603/610 608/602/610 413/334/610 422/336/610
f 611/604/611 610/605/611 423/339/611 233/338/611
f 423/339/612 610/605/612 609/603/612 422/336/612
f 317/341/613 341/331/613 606/601/613 607/606/613
f 607/606/614 606/601/614 608/602/614 609/603/614
f 322/343/615 430/346/615 613/607/615 614/608/615
f 615/609/616 434/350/616 318/349/616 612/610/616
f 318/349/617 317/341/617 607/606/617 612/610/617
f 260/351/618 322/343/618 614/608/618
f 321/352/619 260/351/619 614/608/619
f 613/607/620 431/353/620 321/352/620 614/608/620
f 613/607/621 430/346/621 434/350/621 615/609/621
f 431/353/622 613/607/622 615/609/622 319/354/622
f 319/354/623 615/609/623 612/610/623 432/355/623
f 320/356/624 432/355/624 612/610/624
f 611/604/625 616/611/625 610/605/625
f 610/605/626 616/611/626 607/606/626 609/603/626
f 618/612/627 611/604/627 233/338/627 227/359/627
f 617/613/628 618/612/628 227/359/628 230/361/628
f 619/614/629 607/606/629 616/611/629
f 320/356/630 619/614/630 616/611/630
f 616/611/631 611/604/631 320/356/631
f 320/356/632 611/604/632 247/363/632
f 248/364/633 247/363/633 611/604/633 618/612/633
f 249/365/634 248/364/634 618/612/634 617/613/634
f 249/365/635 617/613/635 621/615/635 441/366/635
f 259/368/636 621/615/636 617/613/636 230/361/636
f 620/616/637 621/615/637 259/368/637 254/370/637
f 313/371/638 441/366/638 621/615/638 620/616/638
f 620/616/639 254/370/639 622/617/639
f 624/618/640 253/375/640 257/374/640
f 253/375/641 624/618/641 623/619/641 252/376/641
f 252/376/642 623/619/642 622/617/642 254/370/642
f 257/374/643 255/378/643 624/618/643
f 255/378/644 256/379/644 623/619/644 624/618/644
f 623/619/645 256/379/645 258/380/645 622/617/645
f 622/617/646 258/380/646 625/620/646
f 625/620/647 258/380/647 309/383/647 626/621/647
f 627/622/648 620/616/648 622/617/648 625/620/648
f 626/621/649 628/623/649 627/622/649 625/620/649
f 626/621/650 309/383/650 629/624/650
f 310/387/651 307/389/651 631/625/651
f 310/387/652 631/625/652 630/626/652 308/390/652
f 457/392/653 632/627/653 629/624/653 309/383/653
f 307/389/654 311/394/654 631/625/654
f 311/394/655 304/395/655 630/626/655 631/625/655
f 308/390/656 630/626/656 632/627/656 457/392/656
f 304/395/657 306/396/657 632/627/657 630/626/657
f 306/396/658 305/397/658 629/624/658 632/627/658
f 620/616/659 633/628/659 450/398/659 313/371/659
f 442/400/660 450/398/660 633/628/660 634/629/660
f 627/622/567 633/628/567 620/616/567
f 634/629/661 635/630/661 442/400/661
f 449/403/662 442/400/662 635/630/662 636/631/662
f 250/405/663 449/403/663 636/631/663
f 451/406/664 250/405/664 636/631/664
f 451/406/665 636/631/665 635/630/665 452/407/665
f 314/408/666 452/407/666 634/629/666 637/632/666
f 635/630/667 634/629/667 452/407/667
f 628/623/567 637/632/567 634/629/567
f 633/628/567 627/622/567 634/629/567
f 628/623/567 634/629/567 627/622/567
f 484/410/668 314/408/668 637/632/668 652/633/668
f 653/634/669 652/633/669 637/632/669 628/623/669
f 549/635/670 640/636/670 465/415/670 315/414/670
f 640/636/671 639/637/671 465/415/671
f 641/638/672 246/420/672 466/419/672
f 466/419/673 465/415/673 639/637/673 641/638/673
f 246/420/674 641/638/674 467/421/674
f 467/421/675 641/638/675 639/637/675 316/422/675
f 642/639/676 316/422/676 639/637/676 640/636/676
f 638/640/677 643/641/677 640/636/677 549/635/677
f 642/639/678 640/636/678 643/641/678 644/642/678
f 551/643/679 477/430/679 645/644/679 474/428/679
f 228/431/680 474/428/680 645/644/680 476/432/680
f 645/644/681 477/430/681 646/645/681
f 697/646/682 646/645/682 477/430/682 544/435/682
f 697/646/683 696/647/683 645/644/683 646/645/683
f 651/648/684 302/439/684 299/438/684
f 495/440/685 658/649/685 650/650/685 303/441/685
f 303/441/686 650/650/686 649/651/686 301/444/686
f 301/444/687 649/651/687 648/652/687 312/446/687
f 312/446/688 648/652/688 647/653/688 305/397/688
f 629/624/689 305/397/689 647/653/689
f 629/624/567 647/653/567 626/621/567
f 655/654/690 654/655/690 652/633/690 653/634/690
f 487/451/691 484/410/691 652/633/691 654/655/691
f 628/623/692 626/621/692 647/653/692 653/634/692
f 490/452/693 487/451/693 654/655/693 656/656/693
f 657/657/694 656/656/694 654/655/694 655/654/694
f 648/652/695 655/654/695 653/634/695 647/653/695
f 667/658/696 666/659/696 656/656/696 657/657/696
f 504/457/697 490/452/697 656/656/697 666/659/697
f 649/651/698 657/657/698 655/654/698 648/652/698
f 299/438/699 300/458/699 651/648/699
f 494/459/700 296/460/700 650/650/700 658/649/700
f 300/458/701 494/459/701 658/649/701 651/648/701
f 302/439/702 651/648/702 658/649/702 495/440/702
f 659/660/703 649/651/703 650/650/703 296/460/703
f 298/462/704 285/464/704 664/661/704
f 493/465/705 660/662/705 659/660/705 296/460/705
f 295/467/706 661/663/706 660/662/706 493/465/706
f 294/469/707 662/664/707 661/663/707 295/467/707
f 293/471/708 663/665/708 662/664/708 294/469/708
f 298/462/709 664/661/709 663/665/709 293/471/709
f 315/414/710 504/457/710 666/659/710 549/635/710
f 638/640/711 549/635/711 666/659/711 667/658/711
f 657/657/712 649/651/712 659/660/712 667/658/712
f 638/640/713 667/658/713 659/660/713 665/666/713
f 285/464/714 297/474/714 664/661/714
f 297/474/715 286/475/715 663/665/715 664/661/715
f 286/475/716 287/476/716 662/664/716 663/665/716
f 287/476/717 288/477/717 662/664/717
f 288/477/718 290/478/718 662/664/718
f 290/478/719 289/479/719 662/664/719
f 662/664/720 289/479/720 661/663/720
f 289/479/721 291/480/721 660/662/721 661/663/721
f 292/481/722 665/666/722 291/480/722
f 659/660/723 660/662/723 291/480/723 665/666/723
f 642/639/724 644/642/724 668/667/724 669/668/724
f 642/639/725 669/668/725 508/484/725 316/422/725
f 231/485/726 670/669/726 665/666/726 292/481/726
f 643/641/727 638/640/727 665/666/727 670/669/727
f 644/642/728 643/641/728 670/669/728 671/670/728
f 284/488/729 671/670/729 670/669/729 231/485/729
f 672/671/730 671/670/730 284/488/730 283/490/730
f 668/667/731 644/642/731 671/670/731 672/671/731
f 675/672/732 271/493/732 269/492/732
f 271/493/733 675/672/733 674/673/733 270/494/733
f 270/494/734 674/673/734 673/674/734 272/496/734
f 272/496/735 673/674/735 672/671/735 283/490/735
f 268/498/736 676/675/736 673/674/736 677/676/736
f 673/674/737 676/675/737 672/671/737
f 266/501/738 268/498/738 674/673/738
f 268/498/739 677/676/739 674/673/739
f 674/673/740 677/676/740 673/674/740
f 273/502/741 266/501/741 674/673/741 675/672/741
f 269/492/742 273/502/742 675/672/742
f 678/677/743 676/675/743 268/498/743 267/504/743
f 562/678/744 678/677/744 267/504/744 264/506/744
f 679/679/745 562/678/745 264/506/745 265/508/745
f 680/680/746 679/679/746 265/508/746 263/510/746
f 681/681/747 680/680/747 263/510/747 280/512/747
f 682/682/748 681/681/748 280/512/748 279/514/748
f 683/683/749 682/682/749 279/514/749 282/516/749
f 282/516/750 262/517/750 683/683/750
f 262/517/751 281/518/751 683/683/751
f 261/519/752 275/520/752 679/679/752 680/680/752
f 278/521/753 261/519/753 680/680/753 681/681/753
f 274/522/754 278/521/754 681/681/754 682/682/754
f 281/518/755 274/522/755 682/682/755 683/683/755
f 275/520/756 685/684/756 679/679/756
f 684/685/757 685/684/757 275/520/757 276/525/757
f 679/679/567 685/684/567 562/678/567
f 669/668/758 668/667/758 686/686/758 687/687/758
f 669/668/759 687/687/759 527/528/759 508/484/759
f 668/667/760 672/671/760 676/675/760 686/686/760
f 687/687/761 686/686/761 688/688/761 689/689/761
f 687/687/762 689/689/762 530/531/762 527/528/762
f 678/677/763 688/688/763 686/686/763 676/675/763
f 693/690/764 692/691/764 690/692/764 691/693/764
f 693/690/765 691/693/765 535/537/765 538/536/765
f 689/689/766 693/690/766 538/536/766 530/531/766
f 689/689/767 688/688/767 692/691/767 693/690/767
f 562/678/768 692/691/768 688/688/768 678/677/768
f 690/692/769 685/684/769 684/685/769
f 685/684/770 690/692/770 692/691/770 562/678/770
f 691/693/771 690/692/771 694/694/771 695/695/771
f 691/693/772 695/695/772 541/540/772 535/537/772
f 695/695/773 694/694/773 696/647/773 697/646/773
f 695/695/774 697/646/774 544/435/774 541/540/774
f 700/696/775 533/542/775 476/432/775
f 533/542/776 700/696/776 699/697/776 277/543/776
f 277/543/777 699/697/777 698/698/777 532/545/777
f 532/545/778 698/698/778 684/685/778 276/525/778
f 476/432/779 645/644/779 700/696/779
f 645/644/780 696/647/780 699/697/780 700/696/780
f 696/647/781 694/694/781 698/698/781 699/697/781
f 684/685/782 698/698/782 694/694/782 690/692/782
l 427 438
l 612 619
